<?xml version="1.0" encoding="utf-8"?>
<!-- Generator: Adobe Illustrator 27.2.0, SVG Export Plug-In . SVG Version: 6.00 Build 0)  -->
<svg version="1.1" id="Layer_1" xmlns="http://www.w3.org/2000/svg" xmlns:xlink="http://www.w3.org/1999/xlink" x="0px" y="0px"
	 viewBox="0 0 60 60" style="enable-background:new 0 0 60 60;" xml:space="preserve">
<path d="M24.5,3c1.7,0,3.4,0.7,4.6,1.9C31.7,3.7,34.6,3,37.5,3C48.3,3,57,11.7,57,22.5S48.3,42,37.5,42c-2.3,0-4.5-0.4-6.5-1.1v10.6
	c0,3.6-2.9,6.5-6.5,6.5h-15C5.9,58,3,55.1,3,51.5v-42C3,5.9,5.9,3,9.5,3H24.5z M28,43.9l-7,4V55h3.5c1.9,0,3.5-1.6,3.5-3.5V43.9z
	 M6,43.9v7.6C6,53.4,7.6,55,9.5,55H13v-7.1C13,47.9,6,43.9,6,43.9z M18,6h-2v49h2V6z M21.5,33.6L21,33.9v10.5l7-4v-0.9
	C25.4,38.1,23.2,36.1,21.5,33.6z M6,29.9v10.5l7,4V33.9L6,29.9z M37.5,6C28.4,6,21,13.4,21,22.5S28.4,39,37.5,39
	c6,0,11.2-3.2,14.1-7.9H39.3v-2.8h-2v3.5l-7.7,2.6V24h-6.1v-3h6.1V10.6l7.7,2.6v3.5h2v-2.8h12.3C48.7,9.2,43.5,6,37.5,6z M6,15.9
	v10.5l7,4V19.9L6,15.9z M34.2,28.3h-1.7v1.9l1.7-0.6C34.2,29.7,34.2,28.3,34.2,28.3z M53,16.9H42.3v11.1h2.2v-1.8h2v1.8h2.8v-3.5h2
	v3.5H53c0.6-1.7,1-3.6,1-5.6S53.6,18.7,53,16.9z M39.3,19.7h-6.7v5.6h6.7V19.7z M32.5,14.8v1.9h1.7v-1.4L32.5,14.8z M13,6H9.5
	C7.6,6,6,7.6,6,9.5v2.9l7,4V6z M24.5,6H21v6.2c1.4-2.2,3.2-4.1,5.3-5.6C25.8,6.2,25.1,6,24.5,6z"/>
</svg>
