<?xml version="1.0" encoding="utf-8"?>
<!-- Generator: Adobe Illustrator 27.2.0, SVG Export Plug-In . SVG Version: 6.00 Build 0)  -->
<svg version="1.1" id="Layer_1" xmlns="http://www.w3.org/2000/svg" xmlns:xlink="http://www.w3.org/1999/xlink" x="0px" y="0px"
	 viewBox="0 0 60 60" style="enable-background:new 0 0 60 60;" xml:space="preserve">
<path d="M29.7,6c0.8,0,1.5,0.7,1.5,1.5v2.6c8.4,0.8,15,7.8,15,16.4v11.4l4.1,4.1c1,1,1.3,2.5,0.8,3.8c-0.5,1.3-1.8,2.2-3.2,2.2H37.1
	c-0.3,3.9-3.5,7-7.5,7c-4,0-7.2-3.1-7.5-7H11.5c-1.4,0-2.7-0.9-3.2-2.2C7.7,44.5,8,43,9,42l4.1-4.1V26.5c0-8.6,6.6-15.7,15-16.4V7.5
	C28.2,6.7,28.8,6,29.7,6z M34.1,48h-8.9c0.3,2.2,2.1,4,4.5,4S33.9,50.2,34.1,48z M29.7,13c-7.4,0-13.5,6.1-13.5,13.5v12.6l-5,5
	C11,44.3,11,44.5,11,44.7c0.1,0.2,0.3,0.3,0.5,0.3h36.3c0.2,0,0.4-0.1,0.5-0.3c0.1-0.2,0-0.4-0.1-0.5l-5-5V26.5
	C43.2,19.1,37.1,13,29.7,13L29.7,13z"/>
</svg>
