<?xml version="1.0" encoding="utf-8"?>
<!-- Generator: Adobe Illustrator 27.2.0, SVG Export Plug-In . SVG Version: 6.00 Build 0)  -->
<svg version="1.1" id="Layer_1" xmlns="http://www.w3.org/2000/svg" xmlns:xlink="http://www.w3.org/1999/xlink" x="0px" y="0px"
	 viewBox="0 0 60 60" style="enable-background:new 0 0 60 60;" xml:space="preserve">
<style type="text/css">
	.st0{fill-rule:evenodd;clip-rule:evenodd;fill:#FE6A2B;}
</style>
<path class="st0" d="M49.1,41.1c1.2-1.7,2-3.7,2-5.9c0-5.5-4.5-10-10-10c0,0,0,0,0,0V10h-9.1c-0.4-1.7-2-3-3.8-3H18
	c-1.9,0-3.4,1.3-3.8,3H5v43h36v-7.8c0,0,0,0,0,0c2.2,0,4.3-0.7,5.9-2l6.8,6.8l2.1-2.1L49.1,41.1z M17,11c0-0.5,0.4-1,1-1h10
	c0.5,0,1,0.4,1,1v2H17V11z M38,50H8V13h6v3h18v-3h6v12.6c-4,1.3-7,5.1-7,9.5c0,4.5,2.9,8.3,7,9.5V50z M41,42.2c-3.9,0-7-3.1-7-7
	c0-3.9,3.1-7,7-7c2,0,3.8,0.8,5,2.1L41,35.4l-3.7-3.7l-2.1,2.1l5.8,5.8l6.7-6.7c0.2,0.7,0.4,1.4,0.4,2.2C48,39,44.9,42.2,41,42.2z
	 M11.5,23H30v-3H11.5V23z M11.5,31h14v-3h-14V31z M11.5,39H22v-3H11.5V39z"/>
</svg>
