<?xml version="1.0" encoding="utf-8"?>
<!-- Generator: Adobe Illustrator 27.2.0, SVG Export Plug-In . SVG Version: 6.00 Build 0)  -->
<svg version="1.1" id="Layer_1" xmlns="http://www.w3.org/2000/svg" xmlns:xlink="http://www.w3.org/1999/xlink" x="0px" y="0px"
	 viewBox="0 0 60 60" style="enable-background:new 0 0 60 60;" xml:space="preserve">
<style type="text/css">
	.st0{fill-rule:evenodd;clip-rule:evenodd;}
</style>
<path class="st0" d="M51.4,6H24.3c-2.5,0-4.5,2-4.5,4.5v9.2H8.5c-2.5,0-4.5,2-4.5,4.5v19.2c0,2.5,2,4.5,4.5,4.5h1.7v6.1
	c0,0.8,0.7,1.5,1.5,1.5c0.4,0,0.8-0.2,1.1-0.4l7.2-7.2h14.2c2.5,0,4.5-2,4.5-4.5v-6l7.1,7.1c0.4,0.4,1.1,0.6,1.6,0.3
	c0.6-0.2,0.9-0.8,0.9-1.4v-6.1h3.1c2.5,0,4.5-2,4.5-4.5V10.5C55.9,8,53.9,6,51.4,6z M35.7,43.3c0,0.8-0.7,1.5-1.5,1.5H19.3
	c-0.4,0-0.8,0.2-1.1,0.4l-5,5v-4c0-0.8-0.7-1.5-1.5-1.5H8.5c-0.8,0-1.5-0.7-1.5-1.5V24.2c0-0.8,0.7-1.5,1.5-1.5h11.3v10
	c0,2.5,2,4.5,4.5,4.5h11.3V43.3z M51.4,34.2h-4.6c-0.8,0-1.5,0.7-1.5,1.5v4l-5-5c-0.3-0.3-0.7-0.4-1.1-0.4H24.3
	c-0.8,0-1.5-0.7-1.5-1.5V10.5c0-0.8,0.7-1.5,1.5-1.5h27.1c0.8,0,1.5,0.7,1.5,1.5v22.2h0C52.9,33.5,52.2,34.2,51.4,34.2z M30.3,19.2
	L30.3,19.2c-1.3,0-2.3,1-2.4,2.3c0,1.3,1,2.3,2.3,2.4c0,0,0.1,0,0.1,0c1.3,0,2.3-1.1,2.3-2.4C32.5,20.3,31.5,19.3,30.3,19.2z
	 M37.9,19.2L37.9,19.2c-1.3,0-2.3,1-2.4,2.3c0,1.3,1,2.3,2.3,2.4c0,0,0.1,0,0.1,0c1.3,0,2.3-1.1,2.3-2.4
	C40.1,20.3,39.1,19.3,37.9,19.2z M45.5,19.2L45.5,19.2c-1.3,0-2.3,1-2.4,2.3c0,1.3,1,2.3,2.3,2.4c0,0,0.1,0,0.1,0
	c1.3,0,2.3-1.1,2.3-2.4C47.7,20.3,46.7,19.3,45.5,19.2z"/>
</svg>
