<?xml version="1.0" encoding="utf-8"?>
<!-- Generator: Adobe Illustrator 27.2.0, SVG Export Plug-In . SVG Version: 6.00 Build 0)  -->
<svg version="1.1" id="Layer_1" xmlns="http://www.w3.org/2000/svg" xmlns:xlink="http://www.w3.org/1999/xlink" x="0px" y="0px"
	 viewBox="0 0 60 60" style="enable-background:new 0 0 60 60;" xml:space="preserve">
<style type="text/css">
	.st0{fill-rule:evenodd;clip-rule:evenodd;}
</style>
<path class="st0" d="M6.5,24.4L3,29.9l3.5,5.4L9,33.7l-2.5-3.8L9,26.1L6.5,24.4z M54,24.4l-2.5,1.6l2.5,3.8l-2.5,3.8l2.5,1.6
	l3.5-5.4L54,24.4z M35.5,5H25.4C21.3,5,18,8.3,18,12.4v34.9c0,4.1,3.3,7.4,7.4,7.4h10.1c4.1,0,7.4-3.3,7.4-7.4V12.4
	C42.9,8.3,39.6,5,35.5,5z M25.2,51.7c-2.4-0.1-4.3-2-4.3-4.4V12.4c0-2.4,1.9-4.3,4.3-4.4V51.7z M32.6,51.7h-4.4V8h4.4V51.7z
	 M39.9,47.3c0,2.4-1.9,4.3-4.3,4.4V8c2.4,0.1,4.3,2,4.3,4.4V47.3z"/>
</svg>
