<?xml version="1.0" encoding="utf-8"?>
<!-- Generator: Adobe Illustrator 27.2.0, SVG Export Plug-In . SVG Version: 6.00 Build 0)  -->
<svg version="1.1" id="Layer_1" xmlns="http://www.w3.org/2000/svg" xmlns:xlink="http://www.w3.org/1999/xlink" x="0px" y="0px"
	 viewBox="0 0 60 60" style="enable-background:new 0 0 60 60;" xml:space="preserve">
<path d="M18.5,21.4c0.5,0.1,1,0.1,1.5,0.1c3.1,0,6-1.5,7.7-4l17.3,0L50,12l-4.9-5.5l-17.3,0c-1.8-2.5-4.7-4-7.7-4
	c-2.7,0-5.3,1.2-7.1,3.2c-1.8,2-2.7,4.7-2.4,7.4C11,17.2,14.4,20.7,18.5,21.4z M15.2,7.7c1.2-1.4,3-2.2,4.8-2.2h0
	c2.3,0,4.5,1.2,5.6,3.2l0.4,0.7l17.7,0L46,12l-2.2,2.5l-2.2,0V12h-3v2.5l-4,0V12h-3v2.5l-5.4,0l-0.4,0.7c-1.4,2.3-4,3.6-6.7,3.2
	c-2.8-0.4-5.1-2.8-5.4-5.7C13.3,10.9,13.9,9.1,15.2,7.7z M48.8,35.5l-6-10H17.2l-6,10H5v3h3.5V53c0,2.5,2,4.5,4.5,4.5h5
	c2.5,0,4.5-2,4.5-4.5v-1.5h15V53c0,2.5,2,4.5,4.5,4.5h5c2.5,0,4.5-2,4.5-4.5V38.5H55v-3H48.8z M18.8,28.5h22.3l4.5,7.4l-2.8,0.6
	H17.1l-2.8-0.6L18.8,28.5z M48.5,53c0,0.8-0.7,1.5-1.5,1.5h-5c-0.8,0-1.5-0.7-1.5-1.5v-4.5h-21V53c0,0.8-0.7,1.5-1.5,1.5h-5
	c-0.8,0-1.5-0.7-1.5-1.5V39.6l1-1l4.2,0.8l26.4,0l4.4-0.9l1,1V53z M15,45.5h6v-3h-6V45.5z M39,45.5h6v-3h-6V45.5z"/>
</svg>
