<?xml version="1.0" encoding="utf-8"?>
<!-- Generator: Adobe Illustrator 27.2.0, SVG Export Plug-In . SVG Version: 6.00 Build 0)  -->
<svg version="1.1" id="Layer_1" xmlns="http://www.w3.org/2000/svg" xmlns:xlink="http://www.w3.org/1999/xlink" x="0px" y="0px"
	 viewBox="0 0 60 60" style="enable-background:new 0 0 60 60;" xml:space="preserve">
<path d="M24.5,27.5h-3v6h3V27.5z M35.5,33.5h3v-6h-3V33.5z M24.9,40.3l-1.9,2.3C25,44.2,27.5,45,30,45c2.5,0,5-0.8,6.9-2.3l-1.9-2.3
	C32.3,42.5,27.7,42.5,24.9,40.3z M50,23h-0.5v-8.1c0-5.3-4.3-9.6-9.6-9.6h-2.2c-1.9-2-4.6-3.3-7.6-3.3H14.9c-2.4,0-4.4,2-4.4,4.4V23
	H10c-3,0-5.5,2.5-5.5,5.5v8c0,3,2.5,5.5,5.5,5.5h2.6c0.7,6.3,5.8,11.3,12.1,11.9c0.6,2.3,2.8,4.1,5.3,4.1c2.5,0,4.6-1.7,5.3-4h7
	c7.3,0,13.2-5.9,13.2-13.2v-4.3v-4v-4C55.5,25.5,53,23,50,23z M12.5,39H10c-1.4,0-2.5-1.1-2.5-2.5v-8c0-1.4,1.1-2.5,2.5-2.5h2.5V39z
	 M13.5,20.8V6.4c0-0.8,0.6-1.4,1.4-1.4h15.3c4,0,7.3,3.3,7.3,7.3v1.8h3v-1.8c0-1.4-0.3-2.8-0.8-4h0.2c3.6,0,6.6,3,6.6,6.6v5.9
	C45.2,18.5,42.8,17,40,17H20C17.2,17,14.8,18.5,13.5,20.8z M30,55c-1.4,0-2.5-1.1-2.5-2.5c0-1.4,1.1-2.5,2.5-2.5
	c1.4,0,2.5,1.1,2.5,2.5S31.4,55,30,55z M35.3,50.9C34.6,48.7,32.5,47,30,47s-4.6,1.7-5.3,3.9c-5.2-0.6-9.2-5.1-9.2-10.4v-16
	c0-2.5,2-4.5,4.5-4.5h20c2.5,0,4.5,2,4.5,4.5v16C44.5,45.9,40.5,50.3,35.3,50.9z M42.5,51c2.7-2.2,4.5-5.4,4.9-9H50
	c0.9,0,1.7-0.2,2.5-0.6C52.1,46.7,47.8,50.9,42.5,51z M52.5,32.5v4c0,1.4-1.1,2.5-2.5,2.5h-2.5V26H50c1.4,0,2.5,1.1,2.5,2.5V32.5z"
	/>
</svg>
