<?xml version="1.0" encoding="utf-8"?>
<!-- Generator: Adobe Illustrator 27.2.0, SVG Export Plug-In . SVG Version: 6.00 Build 0)  -->
<svg version="1.1" id="Layer_1" xmlns="http://www.w3.org/2000/svg" xmlns:xlink="http://www.w3.org/1999/xlink" x="0px" y="0px"
	 viewBox="0 0 33.8 16.4" style="enable-background:new 0 0 33.8 16.4;" xml:space="preserve">
<style type="text/css">
	.st0{fill:url(#SVGID_1_);}
	.st1{fill:#FFFFFF;}
</style>
<g>
	
		<linearGradient id="SVGID_1_" gradientUnits="userSpaceOnUse" x1="1.74" y1="9.795" x2="32.08" y2="9.795" gradientTransform="matrix(1 0 0 -1 0 18)">
		<stop  offset="0" style="stop-color:#3BB1B6"/>
		<stop  offset="1" style="stop-color:#0B9594"/>
	</linearGradient>
	<path class="st0" d="M26,14.9H1.7l1.4-9.4c0.3-2.3,2.3-4,4.7-4h24.3l-1.4,9.4C30.3,13.2,28.3,14.9,26,14.9z"/>
	<path class="st1" d="M32.1,1.5l-1.4,9.4c-0.4,2.3-2.3,4-4.6,4H1.7l1.4-9.4c0.3-2.3,2.3-4,4.7-4H32.1 M33.8,0h-26
		C4.7,0,2.2,2.2,1.7,5.3l-1.4,9.4L0,16.4h26c3.1,0,5.7-2.2,6.1-5.3l1.4-9.4L33.8,0C33.8,0,33.8,0,33.8,0z"/>
</g>
<g>
	<path class="st1" d="M6.4,4.3h3.3c0.4,0,0.7,0,1,0.1c0.3,0,0.6,0.1,0.8,0.2s0.4,0.3,0.4,0.5C12,5.4,12,5.6,12,6l-0.1,0.6
		c-0.1,0.3-0.2,0.6-0.4,0.8C11.3,7.7,11,7.9,10.6,8c0.4,0.1,0.7,0.3,0.9,0.5c0.1,0.2,0.2,0.6,0.1,0.9l-0.1,0.8
		c-0.1,0.4-0.2,0.7-0.3,0.9c-0.2,0.2-0.4,0.4-0.6,0.6C10.3,11.9,10,12,9.6,12s-0.8,0.1-1.3,0.1H5.1L6.4,4.3L6.4,4.3z M7.5,8.7
		l-0.4,2.1h1.1c0.2,0,0.4,0,0.6,0c0.2,0,0.3-0.1,0.4-0.1c0.1-0.1,0.2-0.1,0.2-0.3s0.1-0.2,0.1-0.4l0.1-0.3c0.1-0.3,0-0.6-0.1-0.7
		C9.4,8.8,9.1,8.7,8.7,8.7H7.5z M8.1,5.6L7.8,7.5h1.1c0.1,0,0.3,0,0.4,0s0.2-0.1,0.3-0.1s0.2-0.1,0.2-0.2s0.1-0.2,0.1-0.4L10,6.3
		c0.1-0.3,0-0.5-0.1-0.6S9.5,5.6,9.1,5.6H8.1L8.1,5.6z"/>
	<path class="st1" d="M17.8,9.8h-3.6l0,0.1c-0.1,0.4,0,0.7,0.2,0.8c0.2,0.1,0.6,0.2,1,0.2c0.2,0,0.5,0,0.8-0.1s0.6-0.1,0.9-0.2
		l-0.2,1.2c-0.1,0.1-0.3,0.1-0.4,0.1s-0.3,0.1-0.5,0.1c-0.2,0-0.4,0.1-0.6,0.1c-0.2,0-0.4,0-0.5,0c-1,0-1.7-0.2-2.1-0.6
		c-0.4-0.4-0.6-1.1-0.4-2l0.1-0.7c0.1-0.5,0.2-0.9,0.4-1.2c0.2-0.3,0.4-0.6,0.7-0.8c0.3-0.2,0.6-0.4,0.9-0.5
		c0.4-0.1,0.7-0.2,1.1-0.2c0.4,0,0.8,0,1.1,0.1c0.3,0.1,0.6,0.2,0.8,0.5c0.2,0.2,0.3,0.5,0.4,0.9s0.1,0.8,0,1.3L17.8,9.8L17.8,9.8z
		 M16.2,8.8l0-0.2c0.1-0.3,0-0.6-0.1-0.8c-0.1-0.2-0.3-0.3-0.7-0.3c-0.3,0-0.6,0.1-0.8,0.3c-0.2,0.2-0.3,0.4-0.4,0.8l0,0.2L16.2,8.8
		L16.2,8.8z"/>
	<path class="st1" d="M22.9,7.7h-1.5l-0.4,2.5c0,0.3,0,0.4,0,0.6c0.1,0.1,0.2,0.1,0.4,0.1c0.2,0,0.3,0,0.5,0s0.3-0.1,0.5-0.1
		l-0.2,1.2c-0.2,0.1-0.5,0.2-0.8,0.3c-0.3,0.1-0.6,0.1-0.9,0.1c-0.6,0-1-0.1-1.3-0.4c-0.2-0.3-0.3-0.6-0.2-1.2l0.5-3h-0.9l0.2-1.3
		h0.9l0.2-1.2l1.9-0.3l-0.3,1.5h1.5L22.9,7.7L22.9,7.7z"/>
	<path class="st1" d="M27.7,12.1h-1.4l-0.1-0.5c-0.2,0.2-0.5,0.3-0.9,0.4c-0.4,0.1-0.8,0.2-1.1,0.2c-0.5,0-0.9-0.1-1.2-0.4
		c-0.2-0.2-0.3-0.7-0.2-1.2l0.1-0.4c0.1-0.3,0.2-0.6,0.3-0.8c0.2-0.2,0.4-0.4,0.6-0.5c0.2-0.1,0.5-0.2,0.9-0.3s0.7-0.1,1.2-0.1h0.6
		l0-0.3c0-0.1,0-0.3,0-0.4c0-0.1,0-0.2-0.1-0.2s-0.1-0.1-0.2-0.1s-0.3,0-0.4,0c-0.1,0-0.2,0-0.4,0c-0.1,0-0.3,0-0.5,0.1
		s-0.4,0.1-0.5,0.1s-0.4,0.1-0.5,0.2l0.2-1.3c0.1-0.1,0.3-0.1,0.5-0.1s0.4-0.1,0.6-0.1s0.4-0.1,0.6-0.1c0.2,0,0.3,0,0.5,0
		c0.5,0,0.8,0.1,1.1,0.1c0.3,0.1,0.5,0.2,0.7,0.4c0.2,0.2,0.2,0.4,0.3,0.7s0,0.6,0,0.9L27.7,12.1L27.7,12.1z M26.4,9.6h-0.7
		c-0.3,0-0.5,0-0.7,0.1s-0.3,0.3-0.4,0.6l0,0.1c0,0.2,0,0.3,0,0.4c0.1,0.1,0.2,0.1,0.4,0.1c0.2,0,0.4,0,0.6-0.1s0.4-0.1,0.5-0.3
		L26.4,9.6L26.4,9.6z"/>
</g>
</svg>
