<?xml version="1.0" encoding="utf-8"?>
<!-- Generator: Adobe Illustrator 27.5.0, SVG Export Plug-In . SVG Version: 6.00 Build 0)  -->
<svg version="1.1" id="Layer_1" xmlns="http://www.w3.org/2000/svg" xmlns:xlink="http://www.w3.org/1999/xlink" x="0px" y="0px"
	 viewBox="0 0 64 64" style="enable-background:new 0 0 64 64;" xml:space="preserve">
<style type="text/css">
	.st0{fill:#FFFFFF;}
    .g1 { animation: ripple-anim 2.4s infinite; }
    .g2 { animation: ripple-anim 2.4s 0.1s infinite; }
    .g3 { animation: ripple-anim 2.4s 0.2s infinite; }
    .g4 { animation: ripple-anim 2.4s 0.3s infinite; }
    .g5 { animation: ripple-anim 2.4s 0.4s infinite; }
    .g6 { animation: ripple-anim 2.4s 0.5s infinite; }
    .g7 { animation: ripple-anim 2.4s 0.6s infinite; }

    @keyframes ripple-anim {
        0% { opacity: 1; }
        40% { opacity: 0; }
        60% { opacity: 1; }
        100% { opacity: 1; }
    }
</style>
<g class="g1">
	<circle class="st0" cx="21" cy="33" r="0.9"/>
	<circle class="st0" cx="21.7" cy="35.8" r="0.9"/>
	<circle class="st0" cx="23" cy="38.3" r="0.9"/>
	<circle class="st0" cx="24.9" cy="40.4" r="0.9"/>
	<circle class="st0" cx="27.4" cy="42" r="0.9"/>
	<circle class="st0" cx="30.1" cy="42.8" r="0.9"/>
	<circle class="st0" cx="33" cy="43" r="0.9"/>
	<circle class="st0" cx="35.8" cy="42.3" r="0.9"/>
	<circle class="st0" cx="38.3" cy="41" r="0.9"/>
	<circle class="st0" cx="40.4" cy="39.1" r="0.9"/>
	<circle class="st0" cx="42" cy="36.6" r="0.9"/>
	<circle class="st0" cx="42.8" cy="33.9" r="0.9"/>
	<circle class="st0" cx="43" cy="31" r="0.9"/>
	<circle class="st0" cx="42.3" cy="28.2" r="0.9"/>
	<circle class="st0" cx="41" cy="25.7" r="0.9"/>
	<circle class="st0" cx="39.1" cy="23.6" r="0.9"/>
	<circle class="st0" cx="36.6" cy="22" r="0.9"/>
	<circle class="st0" cx="33.9" cy="21.2" r="0.9"/>
	<circle class="st0" cx="31" cy="21" r="0.9"/>
	<circle class="st0" cx="28.2" cy="21.7" r="0.9"/>
	<circle class="st0" cx="25.7" cy="23" r="0.9"/>
	<circle class="st0" cx="23.6" cy="24.9" r="0.9"/>
	<circle class="st0" cx="22" cy="27.4" r="0.9"/>
	<circle class="st0" cx="21.2" cy="30.1" r="0.9"/>
</g>
<g class="g2">
	<circle class="st0" cx="18" cy="32" r="1"/>
	<circle class="st0" cx="18.2" cy="34.4" r="1"/>
	<circle class="st0" cx="18.8" cy="36.8" r="1"/>
	<circle class="st0" cx="19.9" cy="39" r="1"/>
	<circle class="st0" cx="21.3" cy="41" r="1"/>
	<circle class="st0" cx="23" cy="42.7" r="1"/>
	<circle class="st0" cx="25" cy="44.1" r="1"/>
	<circle class="st0" cx="27.2" cy="45.2" r="1"/>
	<circle class="st0" cx="29.6" cy="45.8" r="1"/>
	<circle class="st0" cx="32" cy="46" r="1"/>
	<circle class="st0" cx="34.4" cy="45.8" r="1"/>
	<circle class="st0" cx="36.8" cy="45.2" r="1"/>
	<circle class="st0" cx="39" cy="44.1" r="1"/>
	<circle class="st0" cx="41" cy="42.7" r="1"/>
	<circle class="st0" cx="42.7" cy="41" r="1"/>
	<circle class="st0" cx="44.1" cy="39" r="1"/>
	<circle class="st0" cx="45.2" cy="36.8" r="1"/>
	<circle class="st0" cx="45.8" cy="34.4" r="1"/>
	<circle class="st0" cx="46" cy="32" r="1"/>
	<circle class="st0" cx="45.8" cy="29.6" r="1"/>
	<circle class="st0" cx="45.2" cy="27.2" r="1"/>
	<circle class="st0" cx="44.1" cy="25" r="1"/>
	<circle class="st0" cx="42.7" cy="23" r="1"/>
	<circle class="st0" cx="41" cy="21.3" r="1"/>
	<circle class="st0" cx="39" cy="19.9" r="1"/>
	<circle class="st0" cx="36.8" cy="18.8" r="1"/>
	<circle class="st0" cx="34.4" cy="18.2" r="1"/>
	<circle class="st0" cx="32" cy="18" r="1"/>
	<circle class="st0" cx="29.6" cy="18.2" r="1"/>
	<circle class="st0" cx="27.2" cy="18.8" r="1"/>
	<circle class="st0" cx="25" cy="19.9" r="1"/>
	<circle class="st0" cx="23" cy="21.3" r="1"/>
	<circle class="st0" cx="21.3" cy="23" r="1"/>
	<circle class="st0" cx="19.9" cy="25" r="1"/>
	<circle class="st0" cx="18.8" cy="27.2" r="1"/>
	<circle class="st0" cx="18.2" cy="29.6" r="1"/>
</g>
<g class="g3">
	<circle class="st0" cx="15.1" cy="33.5" r="0.9"/>
	<circle class="st0" cx="15.6" cy="36.4" r="0.9"/>
	<circle class="st0" cx="16.6" cy="39.2" r="0.9"/>
	<circle class="st0" cx="18.1" cy="41.8" r="0.9"/>
	<circle class="st0" cx="20" cy="44" r="0.9"/>
	<circle class="st0" cx="22.2" cy="45.9" r="0.9"/>
	<circle class="st0" cx="24.8" cy="47.4" r="0.9"/>
	<circle class="st0" cx="27.6" cy="48.4" r="0.9"/>
	<circle class="st0" cx="30.5" cy="48.9" r="0.9"/>
	<circle class="st0" cx="33.5" cy="48.9" r="0.9"/>
	<circle class="st0" cx="36.4" cy="48.4" r="0.9"/>
	<circle class="st0" cx="39.2" cy="47.4" r="0.9"/>
	<circle class="st0" cx="41.8" cy="45.9" r="0.9"/>
	<circle class="st0" cx="44" cy="44" r="0.9"/>
	<circle class="st0" cx="45.9" cy="41.8" r="0.9"/>
	<circle class="st0" cx="47.4" cy="39.2" r="0.9"/>
	<circle class="st0" cx="48.4" cy="36.4" r="0.9"/>
	<circle class="st0" cx="48.9" cy="33.5" r="0.9"/>
	<circle class="st0" cx="48.9" cy="30.5" r="0.9"/>
	<circle class="st0" cx="48.4" cy="27.6" r="0.9"/>
	<circle class="st0" cx="47.4" cy="24.8" r="0.9"/>
	<circle class="st0" cx="45.9" cy="22.2" r="0.9"/>
	<circle class="st0" cx="44" cy="20" r="0.9"/>
	<circle class="st0" cx="41.8" cy="18.1" r="0.9"/>
	<circle class="st0" cx="39.2" cy="16.6" r="0.9"/>
	<circle class="st0" cx="36.4" cy="15.6" r="0.9"/>
	<circle class="st0" cx="33.5" cy="15.1" r="0.9"/>
	<circle class="st0" cx="30.5" cy="15.1" r="0.9"/>
	<circle class="st0" cx="27.6" cy="15.6" r="0.9"/>
	<circle class="st0" cx="24.8" cy="16.6" r="0.9"/>
	<circle class="st0" cx="22.2" cy="18.1" r="0.9"/>
	<circle class="st0" cx="20" cy="20" r="0.9"/>
	<circle class="st0" cx="18.1" cy="22.2" r="0.9"/>
	<circle class="st0" cx="16.6" cy="24.8" r="0.9"/>
	<circle class="st0" cx="15.6" cy="27.6" r="0.9"/>
	<circle class="st0" cx="15.1" cy="30.5" r="0.9"/>
	<circle class="st0" cx="18" cy="32" r="1"/>
	<circle class="st0" cx="18" cy="32" r="1"/>
</g>
<g class="g4">
	<circle class="st0" cx="12" cy="32" r="0.8"/>
	<circle class="st0" cx="12.3" cy="35.5" r="0.8"/>
	<circle class="st0" cx="13.2" cy="38.8" r="0.8"/>
	<circle class="st0" cx="14.7" cy="42" r="0.8"/>
	<circle class="st0" cx="16.7" cy="44.9" r="0.8"/>
	<circle class="st0" cx="19.1" cy="47.3" r="0.8"/>
	<circle class="st0" cx="22" cy="49.3" r="0.8"/>
	<circle class="st0" cx="25.2" cy="50.8" r="0.8"/>
	<circle class="st0" cx="28.5" cy="51.7" r="0.8"/>
	<circle class="st0" cx="32" cy="52" r="0.8"/>
	<circle class="st0" cx="35.5" cy="51.7" r="0.8"/>
	<circle class="st0" cx="38.8" cy="50.8" r="0.8"/>
	<circle class="st0" cx="42" cy="49.3" r="0.8"/>
	<circle class="st0" cx="44.9" cy="47.3" r="0.8"/>
	<circle class="st0" cx="47.3" cy="44.9" r="0.8"/>
	<circle class="st0" cx="49.3" cy="42" r="0.8"/>
	<circle class="st0" cx="50.8" cy="38.8" r="0.8"/>
	<circle class="st0" cx="51.7" cy="35.5" r="0.8"/>
	<circle class="st0" cx="52" cy="32" r="0.8"/>
	<circle class="st0" cx="51.7" cy="28.5" r="0.8"/>
	<circle class="st0" cx="50.8" cy="25.2" r="0.8"/>
	<circle class="st0" cx="49.3" cy="22" r="0.8"/>
	<circle class="st0" cx="47.3" cy="19.1" r="0.8"/>
	<circle class="st0" cx="44.9" cy="16.7" r="0.8"/>
	<circle class="st0" cx="42" cy="14.7" r="0.8"/>
	<circle class="st0" cx="38.8" cy="13.2" r="0.8"/>
	<circle class="st0" cx="35.5" cy="12.3" r="0.8"/>
	<circle class="st0" cx="32" cy="12" r="0.8"/>
	<circle class="st0" cx="28.5" cy="12.3" r="0.8"/>
	<circle class="st0" cx="25.2" cy="13.2" r="0.8"/>
	<circle class="st0" cx="22" cy="14.7" r="0.8"/>
	<circle class="st0" cx="19.1" cy="16.7" r="0.8"/>
	<circle class="st0" cx="16.7" cy="19.1" r="0.8"/>
	<circle class="st0" cx="14.7" cy="22" r="0.8"/>
	<circle class="st0" cx="13.2" cy="25.2" r="0.8"/>
	<circle class="st0" cx="12.3" cy="28.5" r="0.8"/>
</g>
<g class="g5">
	<circle class="st0" cx="9.1" cy="34" r="0.7"/>
	<circle class="st0" cx="9.8" cy="38" r="0.7"/>
	<circle class="st0" cx="11.2" cy="41.7" r="0.7"/>
	<circle class="st0" cx="13.2" cy="45.2" r="0.7"/>
	<circle class="st0" cx="15.7" cy="48.3" r="0.7"/>
	<circle class="st0" cx="18.8" cy="50.8" r="0.7"/>
	<circle class="st0" cx="22.3" cy="52.8" r="0.7"/>
	<circle class="st0" cx="26" cy="54.2" r="0.7"/>
	<circle class="st0" cx="30" cy="54.9" r="0.7"/>
	<circle class="st0" cx="34" cy="54.9" r="0.7"/>
	<circle class="st0" cx="38" cy="54.2" r="0.7"/>
	<circle class="st0" cx="41.7" cy="52.8" r="0.7"/>
	<circle class="st0" cx="45.2" cy="50.8" r="0.7"/>
	<circle class="st0" cx="48.3" cy="48.3" r="0.7"/>
	<circle class="st0" cx="50.8" cy="45.2" r="0.7"/>
	<circle class="st0" cx="52.8" cy="41.7" r="0.7"/>
	<circle class="st0" cx="54.2" cy="38" r="0.7"/>
	<circle class="st0" cx="54.9" cy="34" r="0.7"/>
	<circle class="st0" cx="54.9" cy="30" r="0.7"/>
	<circle class="st0" cx="54.2" cy="26" r="0.7"/>
	<circle class="st0" cx="52.8" cy="22.3" r="0.7"/>
	<circle class="st0" cx="50.8" cy="18.8" r="0.7"/>
	<circle class="st0" cx="48.3" cy="15.7" r="0.7"/>
	<circle class="st0" cx="45.2" cy="13.2" r="0.7"/>
	<circle class="st0" cx="41.7" cy="11.2" r="0.7"/>
	<circle class="st0" cx="38" cy="9.8" r="0.7"/>
	<circle class="st0" cx="34" cy="9.1" r="0.7"/>
	<circle class="st0" cx="30" cy="9.1" r="0.7"/>
	<circle class="st0" cx="26" cy="9.8" r="0.7"/>
	<circle class="st0" cx="22.3" cy="11.2" r="0.7"/>
	<circle class="st0" cx="18.8" cy="13.2" r="0.7"/>
	<circle class="st0" cx="15.7" cy="15.7" r="0.7"/>
	<circle class="st0" cx="13.2" cy="18.8" r="0.7"/>
	<circle class="st0" cx="11.2" cy="22.3" r="0.7"/>
	<circle class="st0" cx="9.8" cy="26" r="0.7"/>
	<circle class="st0" cx="9.1" cy="30" r="0.7"/>
</g>
<g class="g6">
	<circle class="st0" cx="6" cy="32" r="0.6"/>
	<circle class="st0" cx="6.4" cy="36.5" r="0.6"/>
	<circle class="st0" cx="7.6" cy="40.9" r="0.6"/>
	<circle class="st0" cx="9.5" cy="45" r="0.6"/>
	<circle class="st0" cx="12.1" cy="48.7" r="0.6"/>
	<circle class="st0" cx="15.3" cy="51.9" r="0.6"/>
	<circle class="st0" cx="19" cy="54.5" r="0.6"/>
	<circle class="st0" cx="23.1" cy="56.4" r="0.6"/>
	<circle class="st0" cx="27.5" cy="57.6" r="0.6"/>
	<circle class="st0" cx="32" cy="58" r="0.6"/>
	<circle class="st0" cx="36.5" cy="57.6" r="0.6"/>
	<circle class="st0" cx="40.9" cy="56.4" r="0.6"/>
	<circle class="st0" cx="45" cy="54.5" r="0.6"/>
	<circle class="st0" cx="48.7" cy="51.9" r="0.6"/>
	<circle class="st0" cx="51.9" cy="48.7" r="0.6"/>
	<circle class="st0" cx="54.5" cy="45" r="0.6"/>
	<circle class="st0" cx="56.4" cy="40.9" r="0.6"/>
	<circle class="st0" cx="57.6" cy="36.5" r="0.6"/>
	<circle class="st0" cx="58" cy="32" r="0.6"/>
	<circle class="st0" cx="57.6" cy="27.5" r="0.6"/>
	<circle class="st0" cx="56.4" cy="23.1" r="0.6"/>
	<circle class="st0" cx="54.5" cy="19" r="0.6"/>
	<circle class="st0" cx="51.9" cy="15.3" r="0.6"/>
	<circle class="st0" cx="48.7" cy="12.1" r="0.6"/>
	<circle class="st0" cx="45" cy="9.5" r="0.6"/>
	<circle class="st0" cx="40.9" cy="7.6" r="0.6"/>
	<circle class="st0" cx="36.5" cy="6.4" r="0.6"/>
	<circle class="st0" cx="32" cy="6" r="0.6"/>
	<circle class="st0" cx="27.5" cy="6.4" r="0.6"/>
	<circle class="st0" cx="23.1" cy="7.6" r="0.6"/>
	<circle class="st0" cx="19" cy="9.5" r="0.6"/>
	<circle class="st0" cx="15.3" cy="12.1" r="0.6"/>
	<circle class="st0" cx="12.1" cy="15.3" r="0.6"/>
	<circle class="st0" cx="9.5" cy="19" r="0.6"/>
	<circle class="st0" cx="7.6" cy="23.1" r="0.6"/>
	<circle class="st0" cx="6.4" cy="27.5" r="0.6"/>
</g>
<g class="g7">
	<circle class="st0" cx="3.1" cy="34.5" r="0.5"/>
	<circle class="st0" cx="4" cy="39.5" r="0.5"/>
	<circle class="st0" cx="5.7" cy="44.3" r="0.5"/>
	<circle class="st0" cx="8.2" cy="48.6" r="0.5"/>
	<circle class="st0" cx="11.5" cy="52.5" r="0.5"/>
	<circle class="st0" cx="15.4" cy="55.8" r="0.5"/>
	<circle class="st0" cx="19.7" cy="58.3" r="0.5"/>
	<circle class="st0" cx="24.5" cy="60" r="0.5"/>
	<circle class="st0" cx="29.5" cy="60.9" r="0.5"/>
	<circle class="st0" cx="34.5" cy="60.9" r="0.5"/>
	<circle class="st0" cx="39.5" cy="60" r="0.5"/>
	<circle class="st0" cx="44.3" cy="58.3" r="0.5"/>
	<circle class="st0" cx="48.6" cy="55.8" r="0.5"/>
	<circle class="st0" cx="52.5" cy="52.5" r="0.5"/>
	<circle class="st0" cx="55.8" cy="48.6" r="0.5"/>
	<circle class="st0" cx="58.3" cy="44.3" r="0.5"/>
	<circle class="st0" cx="60" cy="39.5" r="0.5"/>
	<circle class="st0" cx="60.9" cy="34.5" r="0.5"/>
	<circle class="st0" cx="60.9" cy="29.5" r="0.5"/>
	<circle class="st0" cx="60" cy="24.5" r="0.5"/>
	<circle class="st0" cx="58.3" cy="19.7" r="0.5"/>
	<circle class="st0" cx="55.8" cy="15.4" r="0.5"/>
	<circle class="st0" cx="52.5" cy="11.5" r="0.5"/>
	<circle class="st0" cx="48.6" cy="8.2" r="0.5"/>
	<circle class="st0" cx="44.3" cy="5.7" r="0.5"/>
	<circle class="st0" cx="39.5" cy="4" r="0.5"/>
	<circle class="st0" cx="34.5" cy="3.1" r="0.5"/>
	<circle class="st0" cx="29.5" cy="3.1" r="0.5"/>
	<circle class="st0" cx="24.5" cy="4" r="0.5"/>
	<circle class="st0" cx="19.7" cy="5.7" r="0.5"/>
	<circle class="st0" cx="15.4" cy="8.2" r="0.5"/>
	<circle class="st0" cx="11.5" cy="11.5" r="0.5"/>
	<circle class="st0" cx="8.2" cy="15.4" r="0.5"/>
	<circle class="st0" cx="5.7" cy="19.7" r="0.5"/>
	<circle class="st0" cx="4" cy="24.5" r="0.5"/>
	<circle class="st0" cx="3.1" cy="29.5" r="0.5"/>
</g>
</svg>
