<?xml version="1.0" encoding="utf-8"?>
<!-- Generator: Adobe Illustrator 27.5.0, SVG Export Plug-In . SVG Version: 6.00 Build 0)  -->
<svg version="1.1" id="Layer_1" xmlns="http://www.w3.org/2000/svg" xmlns:xlink="http://www.w3.org/1999/xlink" x="0px" y="0px"
	 viewBox="0 0 120 120" style="enable-background:new 0 0 120 120;" xml:space="preserve">
<style type="text/css">
	.st0{opacity:0.1;}
	.st1{enable-background:new    ;}
	.st2{fill:#B6B0A2;}
	.st3{fill:#CFC8B9;}
	.st4{fill:#CB3A0C;}
	.st5{fill:#AF2B00;}
	.st6{fill:url(#SVGID_1_);}
	.st7{fill:url(#SVGID_00000142870989357436917570000000768594155313019824_);}
	.st8{fill:url(#SVGID_00000010279361986484360950000009349340591716032914_);}
	.st9{fill:url(#SVGID_00000131367658539707239900000000855167625897750718_);}
	.st10{fill:url(#SVGID_00000096774337535012693510000007758029874385500590_);}
	.st11{fill:url(#SVGID_00000068643834361807448030000007516038737278366374_);}
	.st12{fill:url(#SVGID_00000031927174338113753190000010299496220358857909_);}
	.st13{fill:#1A1A1A;}
	.st14{fill:#333333;}
	.st15{fill:#4D4D4D;}
	.st16{fill:#0F0F0F;}
	.st17{fill:#1F1F1F;}
	.st18{fill:#303030;}
	.st19{fill:#474747;}
	.st20{fill:#828282;}
	.st21{fill:#A6A6A6;}
	.st22{fill:#9E7D22;}
	.st23{fill:#DBAE30;}
	.st24{fill:#A7A7A7;}
	.st25{fill:#9A9A9A;}
	.st26{fill:#8B8B8B;}
	.st27{fill:#838383;}
	.st28{fill:#C3C3C3;}
	.st29{fill:#FFA400;}
	.st30{fill:#FFBB40;}
	.st31{fill:#F29C00;}
	.st32{fill:#E3A639;}
	.st33{fill:#616161;}
	.st34{fill:#4F4F4F;}
	.st35{fill:#808080;}
	.st36{fill:#FFBC45;}
	.st37{fill:#B37300;}
	.st38{fill:#B8B8B8;}
	.st39{fill:#FFFFFF;}
	.st40{fill:#D46600;}
	.st41{fill:#FF9C40;}
	.st42{fill:#FF7B00;}
</style>
<g id="_x31_4">
	<path class="st0" d="M64,63.3l-1.3-0.8c-0.3-0.2-0.9-0.2-1.2,0l-1.6,0.9l-23-4.6L26,52.6l1.1-0.6c0.6-0.3,0.6-0.9,0-1.2l-7-4
		c-3.3-1.9-8.6-1.9-11.9,0l-4.5,2.6c-3.3,1.9-3.3,5,0,6.9l7,4c0.6,0.3,1.6,0.3,2.2,0l1.2-0.7l10.6,6.1l8.1,13.4L31.2,80
		c-0.3,0.2-0.3,0.5,0,0.7l1.3,0.8c0.3,0.2,0.9,0.2,1.2,0L64,64C64.3,63.8,64.3,63.5,64,63.3z"/>
	<g>
		<g class="st1">
			<path class="st2" d="M24.4,38.9l0,17c0,0.9,0.6,2,1.4,2.5l2.9,1.7c0.4,0.2,0.7,0.2,1,0.1c0.3-0.1,0.7-0.5,0.7-0.9l1.1-17.7
				L24.4,38.9z"/>
			<path class="st3" d="M30.2,42.2l0,17c0,0.4-0.2,0.8-0.4,0.9l3.9-2.3c0.3-0.1,0.4-0.5,0.4-0.9l0-17L30.2,42.2z"/>
		</g>
		<g class="st1">
			<g>
				<polygon class="st4" points="31.2,42.8 33.3,41.5 35.1,45.8 32.9,47.1 				"/>
			</g>
			<g>
				<polygon class="st5" points="31.2,42.8 32.9,47.1 31.2,47.2 				"/>
			</g>
		</g>
		<linearGradient id="SVGID_1_" gradientUnits="userSpaceOnUse" x1="50.1405" y1="65.4706" x2="68.2067" y2="25.0311">
			<stop  offset="0" style="stop-color:#FFF6E4"/>
			<stop  offset="0.2485" style="stop-color:#EAE2D1"/>
			<stop  offset="0.7402" style="stop-color:#C4BEAF"/>
			<stop  offset="1" style="stop-color:#B6B0A2"/>
		</linearGradient>
		<path class="st6" d="M67.4,26.1l-17.5,3.2c2.8-0.5,4.8,1.4,4.8,4.9c0,2.6-1,5.5-2.6,8C51,44,49.6,45.6,48,46.6
			c-0.1,0.1-0.2,0.1-0.3,0.2c-3.2,1.9-6,1.2-7-1.6l5.6,16.7c2.2,6.1,8.5,8.1,15.6,3.9c0.2-0.1,0.8-0.3,1-0.5
			c3.5-2.3,7.1-5.7,9.6-9.7c3.6-5.5,6.1-12.6,6-18.4C78.3,29.4,73.6,25.1,67.4,26.1z"/>
		<path class="st4" d="M39.8,18.9c-1.7-1-4.1-0.8-6.8,0.7c-4.5,2.7-8.1,8.5-8.9,13.8c-0.1,0.8-0.2,1.6-0.2,2.4
			c0.1,2.8,1.1,4.8,2.7,5.8c0.6,0.3,1.7,0.9,3.5,0.7c1.8-0.2,3.3-0.9,4.1-1.4c5.1-3.1,8.8-9.8,8.8-15.6
			C42.9,23.9,42.7,20.7,39.8,18.9z"/>
		
			<linearGradient id="SVGID_00000132799522658562399320000011476538329417333671_" gradientUnits="userSpaceOnUse" x1="31.3987" y1="14.0303" x2="18.2863" y2="36.7417">
			<stop  offset="0" style="stop-color:#FF6034"/>
			<stop  offset="0.2598" style="stop-color:#F85B2E"/>
			<stop  offset="0.647" style="stop-color:#E34C1F"/>
			<stop  offset="1" style="stop-color:#CB3A0C"/>
		</linearGradient>
		<path style="fill:url(#SVGID_00000132799522658562399320000011476538329417333671_);" d="M31.7,14.2c-0.1-0.1-0.3-0.2-0.4-0.2
			c-1.5-0.7-3-1.1-5.2-0.8c-1.7,0.2-3.9,1.2-5.4,2.5c-0.8,0.6-3.1,2.5-4.7,5.8c-0.9,1.8-1.9,4.5-1.8,7.3c0.1,4.6,2.5,7,4.4,8.1
			l8,4.6c-1.6-0.9-2.7-2.9-2.7-5.8c-0.1-5.8,4-13.1,9.1-16.1c2.6-1.6,5-1.7,6.8-0.7L31.7,14.2z"/>
		
			<linearGradient id="SVGID_00000043446167215795386460000016380947036505668280_" gradientUnits="userSpaceOnUse" x1="42.4412" y1="22.3102" x2="30.9409" y2="42.2295">
			<stop  offset="0" style="stop-color:#FFF6E4"/>
			<stop  offset="0.2485" style="stop-color:#EAE2D1"/>
			<stop  offset="0.7402" style="stop-color:#C4BEAF"/>
			<stop  offset="1" style="stop-color:#B6B0A2"/>
		</linearGradient>
		<path style="fill:url(#SVGID_00000043446167215795386460000016380947036505668280_);" d="M40.1,20.9c-1.5-0.9-3.6-0.7-5.9,0.7
			c-4.5,2.7-8.1,9-8,14.1c0,2.5,0.9,4.2,2.4,5.1L39,46.9L50.6,27L40.1,20.9z"/>
		<g id="Axonometric_Cylinder_26_">
			<path id="Cylinder_face_62_" class="st4" d="M51.3,48.4c0,4.2,3,5.9,6.6,3.8c3.6-2.1,6.6-7.2,6.6-11.4s-3-5.9-6.6-3.8
				C54.3,39.1,51.3,44.2,51.3,48.4z"/>
			<path id="Cylinder_face_60_" class="st5" d="M54.6,46.5c0,2.1,1.5,3,3.3,1.9c1.8-1.1,3.3-3.6,3.3-5.8c0-2.1-1.5-3-3.3-1.9
				C56.1,41.8,54.6,44.4,54.6,46.5z"/>
			<path id="Cylinder_body_59_" class="st5" d="M62.6,36.5l-9.3-5.4c-1.2-0.7-2.9-0.6-4.7,0.4C45,33.7,42,38.8,42,43.1
				c0,2.1,0.7,3.6,1.9,4.3l9.3,5.4c-1.2-0.7-1.9-2.2-1.9-4.3c0-4.2,3-9.3,6.6-11.4C59.8,35.9,61.4,35.8,62.6,36.5z"/>
		</g>
		
			<linearGradient id="SVGID_00000142168465868996139990000005571298691026520717_" gradientUnits="userSpaceOnUse" x1="40.1526" y1="49.7369" x2="58.2704" y2="22.2761">
			<stop  offset="0" style="stop-color:#B6B0A2"/>
			<stop  offset="0.2755" style="stop-color:#C4BEAF"/>
			<stop  offset="0.7969" style="stop-color:#EAE1D1"/>
			<stop  offset="1" style="stop-color:#FAF1E0"/>
		</linearGradient>
		<path style="fill:url(#SVGID_00000142168465868996139990000005571298691026520717_);" d="M37.1,44.6l6.7,17.3
			c-0.6-1.6-1-3.6-1-5.8c-0.2-10.8,7.4-24.2,16.9-29.9c2.2-1.3,4.4-2.1,6.3-2.4l-18.4,2.7c-0.9,0.1-1.9,0.5-3,1.1
			c-4.5,2.7-8.1,9-8,14.2C36.7,42.9,36.8,43.8,37.1,44.6L37.1,44.6z"/>
		<path class="st4" d="M62.3,66.8c-9.7,5.8-17.7,1.5-17.9-9.5c-0.2-11,7.5-24.6,17.1-30.4s17.7-1.5,17.9,9.5
			C79.6,47.4,71.9,61,62.3,66.8z M78,37.3c-0.2-10.1-7.5-14-16.4-8.7c-8.9,5.3-15.9,17.8-15.7,27.9c0.2,10.1,7.5,14,16.4,8.7
			C71.1,59.9,78.2,47.4,78,37.3L78,37.3z"/>
		
			<radialGradient id="SVGID_00000049909642672824905500000012019590922641824393_" cx="60.8606" cy="27.0434" r="35.2358" gradientUnits="userSpaceOnUse">
			<stop  offset="0" style="stop-color:#FF744D"/>
			<stop  offset="1" style="stop-color:#E24F22"/>
		</radialGradient>
		<path style="fill:url(#SVGID_00000049909642672824905500000012019590922641824393_);" d="M62.2,67c6.2-3.8,10.2-9.4,12.4-13.4
			c2.3-4.1,5-10.4,4.9-17.4c0,0.1,0,0.1-0.1,0.2c0.2,11-7.5,24.6-17.1,30.4c-9.7,5.8-17.7,1.5-17.9-9.5c-0.2-11,7.5-24.6,17.1-30.4
			s17.7-1.5,17.9,9.5c0.1-0.1,0.1-0.1,0.1-0.2c-0.1-2.5-0.4-8.3-5.3-11.3c-3.3-1.9-7.9-1.6-13,1.4c-9.8,5.9-17.7,19.8-17.5,31
			c0.1,5.4,2.1,9.3,5.2,11.1c0.8,0.4,2.9,1.5,5.8,1.2C57.3,69.4,59.8,68.5,62.2,67L62.2,67z"/>
		
			<linearGradient id="SVGID_00000116948762539553328070000006927749678152637345_" gradientUnits="userSpaceOnUse" x1="67.1922" y1="20.9122" x2="42.0445" y2="64.4693">
			<stop  offset="0" style="stop-color:#FF6034"/>
			<stop  offset="0.2598" style="stop-color:#F85B2E"/>
			<stop  offset="0.647" style="stop-color:#E34C1F"/>
			<stop  offset="1" style="stop-color:#CB3A0C"/>
		</linearGradient>
		<path style="fill:url(#SVGID_00000116948762539553328070000006927749678152637345_);" d="M73,24.3c-0.5-0.3-1.1-0.6-1.7-0.7
			c0,0,0,0-0.1,0c-0.1,0-0.2-0.1-0.3-0.1c-1.9-0.6-4.2-0.7-7.7,0.6c-1.2,0.4-3.3,1.5-4.9,2.6c-2.9,2-4.1,3.3-5.5,4.8
			c-5.4,5.7-10.8,16.2-10.5,25.1c0.1,2.9,0.5,4.9,1.6,7.1c0.4,0.9,0.9,1.6,1.5,2.2c-0.5-0.6-1-1.4-1.4-2.2c0.5,1.1,1.2,2.1,2,2.8
			c-0.2-0.2-0.4-0.4-0.6-0.6c0.6,0.8,1.4,1.4,2.2,1.8c0,0-0.1-0.1-0.2-0.1c0.1,0.1,0.2,0.1,0.3,0.2l1.1,0.7
			c-3.1-1.8-5.1-5.6-5.2-11.1c-0.2-11.2,7.6-25.1,17.5-31c5.1-3,9.7-3.4,13-1.4L73,24.3z"/>
		<path class="st5" d="M21.7,35.6l-5.1-2.9c-0.6-0.3-1-1.1-1-1.6c0-0.6,0.5-0.8,1-0.4l5.1,2.9c0.6,0.3,1,1.1,1,1.6
			C22.7,35.7,22.2,35.9,21.7,35.6z"/>
		
			<radialGradient id="SVGID_00000135673339146300567170000002521172953173860782_" cx="32.1462" cy="19.7751" r="15.8266" gradientUnits="userSpaceOnUse">
			<stop  offset="0" style="stop-color:#FF744D"/>
			<stop  offset="1" style="stop-color:#E24F22"/>
		</radialGradient>
		<path style="fill:url(#SVGID_00000135673339146300567170000002521172953173860782_);" d="M39.5,18.7c-0.2-0.1-0.4-0.2-0.7-0.3
			c-0.6-0.2-1.6-0.4-2.7-0.2c-1.1,0.2-2.4,0.7-3.6,1.4c-0.3,0.2-0.6,0.4-0.9,0.6c-0.3,0.2-0.6,0.5-0.9,0.7c-0.6,0.5-1.1,1-1.6,1.6
			c-1,1.1-1.9,2.4-2.6,3.6c-0.4,0.6-0.7,1.2-0.9,1.8c-0.3,0.6-0.5,1.2-0.7,1.7c-0.2,0.5-0.3,1-0.4,1.5c-0.1,0.4-0.2,0.8-0.2,1.2
			c-0.1,0.7-0.1,1-0.1,1s0.1-0.4,0.2-1c0.2-0.6,0.4-1.5,0.9-2.6c0.2-0.5,0.5-1.1,0.7-1.6c0.3-0.6,0.6-1.2,1-1.8
			c0.7-1.2,1.6-2.4,2.6-3.5c0.5-0.6,1-1.1,1.6-1.6c0.3-0.2,0.5-0.5,0.8-0.7c0.3-0.2,0.6-0.4,0.9-0.6c1.1-0.8,2.3-1.3,3.4-1.5
			c1.1-0.2,2-0.2,2.6,0C39.1,18.6,39.3,18.7,39.5,18.7c0.1,0.1,0.2,0.1,0.2,0.1S39.7,18.8,39.5,18.7z"/>
	</g>
</g>
<g>
	<path class="st13" d="M82.5,103.3c0-0.1,0.1-0.2,0.1-0.2c0,0,0.5-1,0.8-1.5c0.7-1.4,1.8-3.2,2.1-4.3c0.1-0.1,0.1-0.2,0.1-0.3
		c0-0.2,0.1-0.5,0.2-0.7c0.1-0.2,0.1-0.6,0.2-0.8c0-0.3,0-0.6,0.1-0.9c0-0.3,0,0,0-0.2c0-0.4,0-0.8-0.1-1.2c0-0.3-0.1-0.6-0.1-0.9
		c-0.2-0.9-0.5-1.8-0.7-2.5c-0.9-2.2-2.4-4.2-2.9-4.8c-0.3-0.3-0.6-0.7-0.9-1c-0.2-0.2-0.7-0.8-1.1-1.2c-0.6-0.6-1.5-1.4-2.2-1.9
		c-0.1-0.1-0.6-0.5-0.7-0.6c-0.2-0.1-0.4-0.3-0.5-0.4c0,0-0.8-0.6-2.1-1.4c-0.8-0.5-2-1.2-3.2-1.8c-0.3-0.1-0.4-0.2-0.6-0.3
		c-0.2-0.1-0.5-0.2-0.7-0.3c-1.2-0.5-1.9-0.7-2.2-0.9c-0.1,0-0.9-0.3-0.9-0.3c-1.4-0.4-2.8-0.8-2.8-0.8c-2.3-0.5-4.5-0.7-6.6-0.5
		c-0.6,0-1.3,0.1-1.9,0.2c-1.9,0.3-3.9,1-5.5,2.2c-0.4,0.3-0.7,0.6-1.1,1c-0.3,0.3-0.6,0.7-0.9,1.1c-0.7,1.1-1.7,3.2-1.8,3.4
		c-0.1,0.1-0.2,0.3-0.3,0.4c-0.2,0.3-0.5,0.9-0.8,1.6c0,0.1-0.1,0.2-0.1,0.2c-1.4,2.6-1.5,2.9-1.7,3.6c-1.3,3.9,0.7,9,3.5,12.2
		c0.6,0.8,1.2,1.4,1.9,2.1c1.5,1.5,4.2,3.7,7.3,5.3c3.3,1.9,7.5,3.3,11.6,3.8c2.8,0.4,6.7,0.1,9.5-1.4c1.5-0.8,2.7-1.8,3.6-3.3
		C81.3,105.7,82.4,103.5,82.5,103.3z M70.6,95.3c-4.3-0.5-9-2.9-11.8-6.2C63,89.5,67.7,92,70.6,95.3z"/>
	<path class="st14" d="M56.3,84c0.1,1.5,0.8,3,1.7,4.3c0.2,0.3,0.4,0.5,0.6,0.8c4.3,0.4,9.1,3,11.9,6.3c0.3,0,0.7,0.1,1,0.1
		c1.5,0,3.2-0.2,4.5-1C71.7,88.7,63.5,84.4,56.3,84z"/>
	<g>
		<path class="st14" d="M72.2,109c-8.2,0.2-17.9-4.4-23.8-11c-3.3-3.7-4.8-7.6-4.3-10.9c-0.5,1.6-0.5,3.3,0,5.1
			c0.5,1.7,1.4,3.5,2.8,5.3c5.1,6.8,15.3,12.5,24.6,12.3c2.4-0.1,6.6-0.6,9-3.7C78.1,108.4,74.7,108.9,72.2,109z M57,106
			c2.6,1.4,5.5,2.5,8.4,3.2C62.4,108.5,59.6,107.4,57,106z M56.4,105.7c0.1,0.1,0.2,0.1,0.3,0.2C56.6,105.8,56.5,105.7,56.4,105.7z
			 M66,109.3c-0.2,0-0.3-0.1-0.5-0.1C65.7,109.3,65.9,109.3,66,109.3z"/>
		<path class="st14" d="M45.9,92.9c0.2,0.5,0.4,0.8,0.6,1.2c0.4,0.6,0.8,1.3,1.4,2c2.5,3.2,6.1,6.2,10.3,8.4
			c0.3,0.2,0.6,0.3,0.9,0.4c4.6,2.3,9.4,3.5,13.6,3.4c2.3-0.1,4.3-0.5,6-1.3c2-0.9,3.3-2.3,4.1-4c-2.3,3.5-6.9,4.1-9.5,4.2
			c-3.5,0.1-7.3-0.7-11.2-2.3c-3.6-1.5-7-3.5-9.9-6c-2.5-2.2-4.5-4.7-5.7-7.1c-1.5-3.1-1.8-5.8-0.8-8.3c-0.9,1.4-1.3,2.9-1.1,4.7
			C44.5,89.6,45,91.2,45.9,92.9z"/>
		<path class="st14" d="M45.8,83c-0.2,0.6-0.3,1.3-0.4,1.9c-0.3,3.4,1.5,7.4,5.1,11.1c2.9,3.1,6.7,5.7,10.5,7.4
			c4.3,2,8.6,3,12.6,2.9c1,0,2.6-0.1,4.2-0.6c0.5-0.1,0.9-0.3,1.4-0.5c1.6-0.7,2.8-1.6,3.7-2.8c0.3-0.5,0.6-0.9,0.8-1.4
			c-2.3,3.5-6.9,4.1-9.5,4.2c-4.9,0.1-9.9-1.4-14.1-3.6c0,0,0,0-0.1,0c-4.9-2.6-9-6.2-11.3-9.7c-2.6-3.7-3.3-7.4-2.1-10.4
			C46.2,82,46,82.5,45.8,83L45.8,83z M58.5,102.1c-0.1,0-0.1-0.1-0.2-0.1C58.3,102.1,58.4,102.1,58.5,102.1z M57.8,101.8
			c-0.1,0-0.1-0.1-0.2-0.1C57.7,101.7,57.7,101.7,57.8,101.8z M57,101.3C57,101.3,57,101.3,57,101.3C57,101.3,57,101.3,57,101.3z
			 M56.3,100.8c0,0-0.1-0.1-0.1-0.1C56.2,100.8,56.2,100.8,56.3,100.8z M55.6,100.4C55.6,100.3,55.5,100.3,55.6,100.4
			C55.5,100.3,55.6,100.3,55.6,100.4z"/>
		<path class="st14" d="M46.4,83.1c-0.1,1.8,0.3,3.8,1.3,5.8c0.8,1.7,2,3.4,3.5,5.1c1.5,1.6,3.2,3.1,5.1,4.4
			c0.8,0.6,1.7,1.1,2.5,1.6c0.4,0.2,0.8,0.5,1.2,0.7c2.1,1.1,4.3,2,6.6,2.7c2.8,0.8,5.4,1.2,7.9,1.1c1.5,0,3-0.3,4.3-0.6
			c0.2-0.1,0.5-0.1,0.6-0.2c1.1-0.4,2.1-0.9,2.9-1.6c1.3-1,1.8-1.9,2.5-3.3c0.1-0.1,0.1-0.2,0.2-0.3c-2.1,4-7.1,4.7-9.8,4.7
			C65.7,103.4,54,97,49.2,89c-2.3-3.8-2.7-7.3-1.3-10.1c-0.2,0.3-0.8,1.4-0.9,1.7C47,80.6,46.5,81.6,46.4,83.1z"/>
	</g>
	<path class="st15" d="M51.6,87.5c4.4,7.2,14.9,13,23.6,12.8c8.7-0.2,12.1-6.2,7.8-13.5c-4.4-7.2-14.9-13-23.6-12.8
		C50.7,74.2,47.2,80.3,51.6,87.5z M62.3,79c5.4-0.1,12,3.5,14.7,8c3,5,0,9-6.5,8.4c-4.3-0.4-9.1-3-11.9-6.3
		C54.5,84.2,55.8,79.1,62.3,79z"/>
</g>
<g>
	<path class="st13" d="M101.7,32.8c-0.1,0-0.1,0-0.2,0c0,0-0.7,0.1-1,0.2c-0.9,0.2-2.2,0.4-2.8,0.7c-0.1,0-0.1,0-0.2,0.1
		c-0.1,0.1-0.3,0.1-0.4,0.2c-0.1,0.1-0.3,0.2-0.4,0.2c-0.2,0.1-0.3,0.2-0.4,0.3c-0.1,0.1,0,0-0.1,0.1c-0.2,0.2-0.4,0.3-0.5,0.5
		c-0.1,0.1-0.3,0.3-0.4,0.4c-0.3,0.4-0.6,0.9-0.9,1.3c-0.7,1.3-1,2.8-1.1,3.2c0,0.3-0.1,0.5-0.1,0.8c0,0.2-0.1,0.6-0.1,1
		c0,0.5-0.1,1.2,0,1.8c0,0,0,0.5,0,0.6c0,0.1,0,0.3,0,0.4c0,0,0,0.6,0.2,1.6c0.1,0.5,0.2,1.4,0.4,2.2c0,0.2,0.1,0.2,0.1,0.4
		c0,0.2,0.1,0.3,0.1,0.5c0.2,0.8,0.4,1.2,0.5,1.4c0,0.1,0.2,0.5,0.2,0.5c0.3,0.8,0.7,1.6,0.7,1.6c0.7,1.3,1.5,2.4,2.3,3.3
		c0.3,0.3,0.6,0.6,0.9,0.8c0.9,0.8,2,1.4,3.2,1.6c0.3,0.1,0.6,0.1,0.9,0.1c0.3,0,0.6,0,0.9,0c0.8-0.1,2.1-0.5,2.3-0.5
		c0.1,0,0.2,0,0.3-0.1c0.2,0,0.6-0.1,1-0.2c0.1,0,0.1,0,0.2,0c1.7-0.4,1.9-0.4,2.4-0.6c2.3-0.9,3.9-3.9,4.3-6.4
		c0.1-0.6,0.2-1.1,0.2-1.7c0.1-1.3,0.1-3.4-0.4-5.5c-0.5-2.3-1.4-4.8-2.8-6.9c-0.9-1.5-2.6-3.1-4.4-3.9c-0.9-0.4-1.9-0.6-2.9-0.4
		C103.4,32.5,101.9,32.8,101.7,32.8z M102.7,41.5c1.5,2.2,2.2,5.3,1.8,7.9C103,47.3,102.3,44.1,102.7,41.5z"/>
	<path class="st14" d="M103.1,52.6c0.7-0.6,1.1-1.6,1.3-2.5c0-0.2,0.1-0.4,0.1-0.6c-1.5-2.2-2.2-5.4-1.8-8c-0.1-0.2-0.2-0.3-0.4-0.5
		c-0.6-0.7-1.3-1.4-2.2-1.7C99.2,43.5,100.4,49.1,103.1,52.6z"/>
	<g>
		<path class="st14" d="M108.4,35.4c3.3,3.7,5,10,4.2,15.4c-0.4,3-1.6,5.2-3.4,6.3c0.9-0.4,1.7-1,2.4-2c0.6-0.9,1.1-2,1.4-3.4
			c1.2-5-0.2-12-3.9-16.3c-0.9-1.1-2.9-2.8-5.2-2.7C105.8,32.9,107.4,34.3,108.4,35.4z M113,43.6c-0.4-1.8-1-3.5-1.8-5.1
			C112,40.1,112.6,41.8,113,43.6z M113.1,44c0-0.1,0-0.1,0-0.2C113.1,43.9,113.1,44,113.1,44z M111,38.1c0.1,0.1,0.1,0.2,0.2,0.3
			C111.1,38.3,111.1,38.2,111,38.1z"/>
		<path class="st14" d="M111.3,53.9c0.1-0.3,0.2-0.5,0.3-0.8c0.1-0.4,0.3-0.9,0.4-1.4c0.5-2.4,0.5-5.2-0.1-8c0-0.2-0.1-0.4-0.1-0.6
			c-0.7-3-2.1-5.7-3.8-7.6c-0.9-1-1.9-1.8-2.9-2.3c-1.2-0.6-2.4-0.7-3.5-0.3c2.5-0.3,4.6,1.6,5.7,2.8c1.4,1.6,2.6,3.7,3.3,6.1
			c0.7,2.3,1.1,4.7,1.1,6.9c0,2-0.4,3.9-1.1,5.5c-0.8,1.9-2,3.1-3.5,3.6c1-0.1,1.9-0.6,2.6-1.3C110.3,55.8,110.9,54.9,111.3,53.9z"
			/>
		<path class="st14" d="M106.7,57.8c0.3-0.1,0.7-0.4,1.1-0.6c1.7-1.2,2.8-3.6,3.2-6.7c0.3-2.6,0-5.3-0.7-7.8c-0.8-2.8-2-5.2-3.6-7
			c-0.4-0.5-1.1-1.2-1.9-1.7c-0.3-0.2-0.5-0.3-0.7-0.4c-0.9-0.5-1.9-0.7-2.8-0.6c-0.3,0-0.7,0.1-1,0.2c2.5-0.3,4.6,1.6,5.7,2.8
			c2,2.2,3.2,5.1,3.9,8c0,0,0,0,0,0c0.7,3.3,0.7,6.6,0,9c-0.7,2.7-2.2,4.4-4,5C106.1,58,106.4,57.9,106.7,57.8L106.7,57.8z
			 M110.6,44.4c0,0,0,0.1,0,0.1C110.7,44.5,110.6,44.5,110.6,44.4z M110.7,44.9c0,0,0,0.1,0,0.1C110.7,45,110.7,44.9,110.7,44.9z
			 M110.8,45.4C110.8,45.5,110.8,45.5,110.8,45.4C110.8,45.5,110.8,45.5,110.8,45.4z M110.9,46c0,0,0,0.1,0,0.1
			C110.9,46,110.9,46,110.9,46z M110.9,46.5C110.9,46.5,110.9,46.5,110.9,46.5C110.9,46.5,110.9,46.5,110.9,46.5z"/>
		<path class="st14" d="M106.5,57.5c0.9-0.6,1.6-1.6,2.2-2.9c0.5-1.1,0.8-2.3,1-3.6c0.2-1.3,0.2-2.7,0-4.1c-0.1-0.6-0.1-1.2-0.2-1.8
			c-0.1-0.3-0.1-0.6-0.2-0.8c-0.3-1.4-0.8-2.8-1.3-4.1c-0.7-1.6-1.6-3-2.6-4.1c-0.6-0.7-1.3-1.3-2-1.8c-0.1-0.1-0.2-0.2-0.3-0.2
			c-0.6-0.4-1.2-0.6-1.9-0.7c-1-0.2-1.6-0.1-2.5,0.2c-0.1,0-0.1,0-0.2,0c2.7-0.6,4.9,1.4,6.1,2.7c3.8,4.3,5.5,12.3,3.7,17.6
			c-0.9,2.5-2.3,4.1-4.2,4.6c0.2,0,1-0.2,1.1-0.2C105.1,58.2,105.8,58,106.5,57.5z"/>
	</g>
	<path class="st15" d="M106.6,53.4c1.6-4.9,0.2-12-3.3-15.9c-3.5-3.9-7.6-3.2-9.3,1.7c-1.6,4.9-0.2,12,3.3,15.9
		C100.8,59,104.9,58.2,106.6,53.4z M98.4,51.7c-2.2-2.5-3.1-6.9-2.1-10c1.1-3.4,4.2-3.5,6.4-0.3c1.5,2.2,2.2,5.4,1.8,8
		C103.9,53.3,101,54.7,98.4,51.7z"/>
</g>
<g>
	<path class="st16" d="M90,85.6c0.2,0.2,0.2,0.5,0.1,0.7s-0.3,0.3-0.4,0.1c-0.2-0.2-0.2-0.5-0.1-0.7C89.7,85.5,89.9,85.4,90,85.6z"
		/>
	<path class="st16" d="M90.1,87.1c0.2,0,0.3-0.2,0.4-0.4l0.4-1.3l-0.7-0.8l0.2-0.7l1.2,1.3l-0.4,1.3c-0.1,0.2-0.2,0.4-0.4,0.4l0,0
		L90.1,87.1z"/>
	<path class="st17" d="M90.9,85.4l-1.2-1.3l-0.4,1.3c-0.2,0.5,0,1.1,0.3,1.5l0,0c0.3,0.4,0.7,0.3,0.9-0.2L90.9,85.4z M90,85.6
		c0.2,0.2,0.2,0.5,0.1,0.7s-0.3,0.3-0.4,0.1c-0.2-0.2-0.2-0.5-0.1-0.7C89.7,85.5,89.9,85.4,90,85.6z"/>
	<polygon class="st16" points="90.1,87.1 90.1,87.1 90.1,87.1 	"/>
	<path class="st18" d="M97.1,73.3L93.4,84c-0.4,1.2-1.7,1.9-2.9,1.5l0,0c-1.2-0.4-1.9-1.7-1.5-2.9l3.6-10.7L97.1,73.3z"/>
	<path class="st19" d="M93,72.9c0.7,0.8,2.1,1.3,3.1,1.1c1-0.2,1.3-1,0.6-1.8c-0.7-0.8-2.1-1.3-3.1-1.1C92.5,71.3,92.3,72.1,93,72.9
		z"/>
	<path class="st18" d="M97.6,71.7l-0.4,1.1c-0.1,0.3-0.4,0.6-1,0.7c-1,0.2-2.4-0.3-3.1-1.1c-0.3-0.4-0.5-0.8-0.3-1.1l0.4-1.1
		L97.6,71.7z"/>
	<path class="st19" d="M93.5,71.3c0.7,0.8,2.1,1.3,3.1,1.1c1-0.2,1.3-1,0.6-1.8c-0.7-0.8-2.1-1.3-3.1-1.1
		C93.1,69.7,92.8,70.5,93.5,71.3z"/>
	<polygon class="st20" points="100.4,58.9 100.5,56.2 99.9,55.6 100.6,55.4 101.2,56.1 101.1,58.8 99.8,60.2 96.1,71.1 95.5,71.2 
		99.1,60.3 	"/>
	<g>
		<polygon class="st21" points="100.4,58.9 99.1,60.3 95.5,71.2 94.8,70.5 98.5,59.6 98.6,56.9 99.9,55.6 100.5,56.2 		"/>
	</g>
	<path class="st22" d="M90.9,83l-0.1,0.2c-0.1,0.2,0,0.5,0.3,0.5l0,0c0.2,0.1,0.5,0,0.5-0.3l0.1-0.2c-0.1,0.2-0.3,0.3-0.5,0.3l0,0
		C90.9,83.5,90.8,83.2,90.9,83z"/>
	<path class="st23" d="M93.5,75.3L90.9,83c-0.1,0.2,0,0.5,0.3,0.5l0,0c0.2,0.1,0.5,0,0.5-0.3l2.6-7.7c0.1-0.2,0-0.5-0.3-0.5l0,0
		C93.8,75,93.5,75.1,93.5,75.3z"/>
	<path class="st22" d="M92.2,73.9l-2.7,7.9c-0.1,0.2,0,0.5,0.1,0.7l0,0c0.1,0.1,0.2,0.1,0.2,0.1c0,0,0,0,0,0l0,0
		c-0.2-0.2-0.2-0.5-0.1-0.7l2.7-7.9c0-0.1,0.1-0.2,0.2-0.2C92.5,73.6,92.3,73.7,92.2,73.9z"/>
	<path class="st23" d="M92.4,73.9l-2.7,7.9c-0.1,0.2,0,0.5,0.1,0.7l0,0c0,0,0,0,0,0c0.1,0,0.1-0.1,0.2-0.2l2.7-7.9
		c0.1-0.2,0-0.5-0.1-0.7l0,0c0,0,0,0,0,0C92.5,73.8,92.5,73.8,92.4,73.9z"/>
	<path class="st22" d="M92.6,83.5c0,0.1,0.1,0.1,0.2,0.1l0,0c0.2,0,0.5-0.3,0.5-0.5l2.7-7.9c0.1-0.2,0-0.3-0.2-0.3
		c0,0.1,0.1,0.1,0,0.3L93.2,83C93.2,83.2,92.9,83.4,92.6,83.5L92.6,83.5C92.7,83.5,92.7,83.5,92.6,83.5z"/>
	<path class="st23" d="M95.3,75.3l-2.7,7.9c0,0.1,0,0.2,0,0.3c0,0,0,0,0.1,0l0,0c0.2,0,0.5-0.3,0.5-0.5l2.7-7.9c0-0.1,0-0.2,0-0.3
		c0,0,0,0-0.1,0l0,0C95.6,74.9,95.4,75.1,95.3,75.3z"/>
</g>
<g>
	<g>
		<path class="st24" d="M70.4,82.7L69,83c0,0,0,0,0.3-0.9c0.5-0.5,1-1,1.4-1.3l0.4,1L70.4,82.7z"/>
	</g>
	<polygon class="st25" points="107.9,70 104,72.6 106.8,75.6 110.6,73 	"/>
	<path class="st24" d="M64.5,87.5l2.8,3l0,0c1.4,1.4,4.2,0.5,4.2,0.5s3.2-1,5.2-3.6c0,0,1.1-1.7,4.6-2.5c0,0,16.3-3.7,21.1-4.7
		l1.5,1.7l0,0c0.8,0.8,2,1.1,3.7,0.7c3.3-0.7,6.8-4,7.8-7.2c0.5-1.6,0.3-2.9-0.4-3.7l0,0l-2.8-3l0.6,3.5c0,0.1,0,0.2-0.1,0.3
		c-0.9,3-4.1,6-7.1,7l-4.3-0.6c-0.4-0.5-0.7-1.1-0.7-1.8C97.1,77.9,78.5,82,78.5,82c-3.4,0.8-4.6,2.5-4.6,2.5
		c-2,2.5-5.2,3.6-5.2,3.6s-0.5,0.2-1.2,0.3L64.5,87.5z M101.2,79L101.2,79C101.2,79,101.2,79,101.2,79z"/>
	<polygon class="st25" points="70.1,79.2 66.3,80 69,83 72.8,82.1 	"/>
	<polygon class="st26" points="106.3,76.9 106.8,75.6 104,72.6 102.9,76.3 105.6,77.5 	"/>
	<polygon class="st27" points="110.2,72.5 110.6,71.1 107.9,70 	"/>
	<path class="st28" d="M78.5,82c0,0,18.6-4.2,21.9-4.9c0.1,2.1,1.8,3.2,4.4,2.6c3.3-0.7,6.8-4,7.8-7.2c1-3.2-0.8-5.2-4.1-4.5
		c-2.5,0.6-5.1,2.6-6.7,4.9c-3.1,0.7-22,4.9-22,4.9c-3.4,0.8-3.6-0.6-3.6-0.6c-0.6-1.9-3.6-1.6-3.6-1.6l0,0c0,0-3.1,0.2-6,3.4
		C66.3,80,66.3,80,66.3,80l3.8-0.8l1.1,2.6l-3,3.5l-3.8,0.8c0,0,0,0-0.3,0.9c1.2,2.3,4.6,1.1,4.6,1.1s3.2-1,5.2-3.6
		C73.9,84.5,75.1,82.8,78.5,82z M104,72.6l3.9-2.6l2.7,1.1l-1.2,3.7l-3.9,2.6l-2.7-1.1L104,72.6z"/>
	<path class="st25" d="M79.3,80.9c0-0.1,0-0.2,0.1-0.3l0,0c0.2-0.6,0.9-1.3,1.5-1.4l17.7-4c0.1,0,0.2,0,0.3,0c0-0.5-0.3-0.7-0.9-0.6
		l-17.7,4c-0.7,0.1-1.3,0.8-1.5,1.4l0,0C78.6,80.6,78.8,80.9,79.3,80.9z"/>
	<path class="st24" d="M79.3,80.9c0.1,0,0.2,0,0.3,0l17.7-4c0.7-0.1,1.3-0.8,1.5-1.4l0,0c0-0.1,0.1-0.2,0.1-0.3c-0.1,0-0.2,0-0.3,0
		l-17.7,4c-0.7,0.1-1.3,0.8-1.5,1.4l0,0C79.3,80.8,79.3,80.9,79.3,80.9z"/>
</g>
<g>
	<path class="st29" d="M95.1,44.2C95.1,44.2,95.1,44.2,95.1,44.2l1.4-1.1L96.2,43l0.8-0.6l0.3,0.1l1.5-1.1l-0.3-0.1l0.8-0.6l0.3,0.1
		l1.5-1.1l-0.3-0.1l0.8-0.6l0.3,0.1l1.8-1.3c1-0.8,1.8-1.9,2.2-3.1l2-6.1L91,16.7L74.1,29.5l0,0c-0.7,0.4-1,1.3-0.9,2.5l0,0.1
		c0.3,2.3,2.3,4.9,4.4,5.8l14.9,6.3C93.6,44.7,94.5,44.6,95.1,44.2L95.1,44.2L95.1,44.2z"/>
	<path class="st30" d="M104.6,29.6l-10.1-4.3c-2.1-0.9-4.1-3.5-4.4-5.8l0-0.1c-0.3-2.3,1.2-3.4,3.4-2.5l10.1,4.3
		c2.1,0.9,4.1,3.5,4.4,5.8l0,0.1C108.2,29.3,106.7,30.5,104.6,29.6z"/>
	<g>
		<path class="st31" d="M97.7,22.6c-1.6-0.7-3-2.6-3.2-4.2c-0.1-0.8,0.1-1.5,0.6-1.8l0,0l-2.3,1.7c-0.4,0.3-0.7,1-0.6,1.8
			c0.2,1.7,1.6,3.6,3.2,4.2c0.8,0.3,1.4,0.3,1.9,0l2.3-1.7C99.1,22.9,98.5,22.9,97.7,22.6z"/>
		<path class="st32" d="M97.7,22.6c-1.6-0.7-3-2.6-3.2-4.2c-0.2-1.7,0.9-2.5,2.5-1.9s3,2.6,3.2,4.2C100.3,22.4,99.2,23.2,97.7,22.6z
			"/>
	</g>
	<g>
		<path class="st19" d="M95.9,15.2L94,16.7l0,0c-0.5,0.4-0.8,1.1-0.6,2.1c0.2,1.9,1.9,4.1,3.6,4.8c0.9,0.4,1.6,0.3,2.2-0.1l1.9-1.4
			L95.9,15.2z"/>
		<path class="st33" d="M98.9,22.1c-1.8-0.8-3.4-2.9-3.6-4.8c-0.2-1.9,1-2.9,2.8-2.1c1.8,0.8,3.4,2.9,3.6,4.8S100.6,22.9,98.9,22.1z
			"/>
		<path class="st34" d="M100.6,21.8c0.4-0.4,0.5-1,0.4-1.7c-0.2-1.7-1.7-3.7-3.3-4.3c-0.7-0.3-1.3-0.3-1.8-0.1
			c0.4-0.5,1.2-0.5,2.1-0.2c1.6,0.7,3.1,2.6,3.3,4.3C101.4,20.8,101.1,21.5,100.6,21.8z"/>
		<path class="st35" d="M100.6,21.8c-0.4,0.2-1.1,0.2-1.8-0.1c-1.6-0.7-3.1-2.6-3.3-4.3c-0.1-0.8,0.1-1.4,0.4-1.7
			c0.4-0.2,1.1-0.2,1.8,0.1c1.6,0.7,3.1,2.6,3.3,4.3C101.1,20.9,100.9,21.5,100.6,21.8z"/>
	</g>
	<path class="st36" d="M101.1,39.7l-0.4,0.3L98.6,39c-0.3-0.1-0.4-0.4-0.2-0.6c0,0.1,0.1,0.2,0.3,0.2l2.1,0.9l0.3-0.2L101.1,39.7z"
		/>
	<path class="st37" d="M101.5,38.9l-0.8,0.6l-2.1-0.9c-0.1-0.1-0.2-0.1-0.3-0.2c0,0,0.1-0.1,0.1-0.1l0,0c0.3-0.2,0.9-0.3,1.2-0.2
		L101.5,38.9z"/>
	<path class="st36" d="M98.8,41.4l-0.4,0.3l-2.1-0.9c-0.3-0.1-0.4-0.4-0.2-0.6c0,0.1,0.1,0.2,0.3,0.2l2.1,0.9l0.3-0.2L98.8,41.4z"/>
	<path class="st37" d="M99.3,40.6l-0.8,0.6l-2.1-0.9c-0.1-0.1-0.2-0.1-0.3-0.2c0,0,0.1-0.1,0.1-0.1l0,0c0.3-0.2,0.9-0.3,1.2-0.2
		L99.3,40.6z"/>
	<path class="st36" d="M96.5,43.1l-0.4,0.3L94,42.5c-0.3-0.1-0.4-0.4-0.2-0.6c0,0.1,0.1,0.2,0.3,0.2l2.1,0.9l0.3-0.2L96.5,43.1z"/>
	<path class="st37" d="M97,42.3L96.2,43l-2.1-0.9c-0.1-0.1-0.2-0.1-0.3-0.2c0,0,0.1-0.1,0.1-0.1l0,0c0.3-0.2,0.9-0.3,1.3-0.2
		L97,42.3z"/>
	<path class="st38" d="M90.1,41.7l-10.5-4.4c-0.5-0.2-0.5-0.6-0.1-0.9l10-7.6c0.4-0.3,1.2-0.4,1.6-0.2l3.5,1.5
		c4.3,1.8,4.8,5.6,1,8.5l-4,3C91.3,41.8,90.6,41.9,90.1,41.7z"/>
	<ellipse transform="matrix(0.9924 -0.123 0.123 0.9924 -3.478 11.4014)" class="st39" cx="90.6" cy="33.9" rx="4.6" ry="2.7"/>
	<g>
		<path class="st19" d="M92.7,32.2c0,0-6.7,1.6-3.8,2.8C91.9,36.4,92.7,32.2,92.7,32.2z"/>
	</g>
	<path class="st30" d="M101.3,30.4l-0.4,0.3c-0.4,0.3-1,0.4-1.4,0.2l-7.7-3.3c-0.3-0.1-0.4-0.4-0.3-0.7c0.1,0.1,0.2,0.2,0.3,0.3
		l7.7,3.3c0.4,0.2,1.1,0.1,1.4-0.2l0.4-0.3c0.1-0.1,0.1-0.1,0.2-0.2C101.6,30,101.5,30.3,101.3,30.4z"/>
	<path class="st37" d="M101.3,30l-0.4,0.3c-0.4,0.3-1,0.4-1.4,0.2l-7.7-3.3c-0.2-0.1-0.3-0.2-0.3-0.3c0-0.1,0.1-0.1,0.2-0.2l0.4-0.3
		c0.4-0.3,1-0.4,1.4-0.2l7.7,3.3c0.2,0.1,0.3,0.2,0.3,0.3C101.4,29.9,101.4,30,101.3,30z"/>
	<polygon class="st21" points="90.7,40.4 82.7,37 83.9,36.1 91.9,39.5 	"/>
</g>
<g>
	<polygon class="st40" points="68.8,59.2 72.8,60.7 68.6,61.8 64.7,60.3 	"/>
	<path class="st41" d="M72.8,60.7c0-0.3,0-0.5-0.1-0.8c0-0.1,0-0.2,0-0.3c0-0.2,0-0.3,0-0.5c0-0.1,0-0.2,0-0.3c0-0.1,0-0.3,0-0.4
		c0-0.1,0-0.2,0.1-0.3c0-0.1,0-0.3,0.1-0.4c0.1-0.4,0.2-0.7,0.3-1.1c0-0.1,0.1-0.1,0.1-0.2c0.1-0.3,0.3-0.6,0.4-0.9
		c0,0,0-0.1,0.1-0.1c0.1-0.2,0.3-0.5,0.4-0.7c0.1-0.1,0.1-0.2,0.2-0.2c0.1-0.2,0.3-0.4,0.4-0.6c0-0.1,0.1-0.1,0.1-0.2
		c0.2-0.2,0.4-0.5,0.7-0.7c0.1-0.1,0.2-0.2,0.3-0.3c0.1-0.1,0.1-0.1,0.2-0.2c0.1-0.1,0.3-0.2,0.4-0.3c0.1,0,0.1-0.1,0.2-0.1
		c0,0,0.1,0,0.1,0c0.2-0.2,0.5-0.3,0.8-0.4c0.1,0,0.1-0.1,0.2-0.1c0.3-0.1,0.6-0.2,0.9-0.3c0.3-0.1,0.6-0.1,0.9-0.2
		c0.1,0,0.1,0,0.2,0c0.3,0,0.6,0,0.8,0c0,0,0.1,0,0.1,0c0.3,0,0.5,0.1,0.7,0.1c0,0,0.1,0,0.1,0c0.3,0.1,0.6,0.2,0.9,0.3l-4-1.6
		c-0.1,0-0.2-0.1-0.2-0.1c-0.2-0.1-0.4-0.1-0.6-0.2c0,0-0.1,0-0.1,0c-0.1,0-0.3-0.1-0.4-0.1c-0.1,0-0.2,0-0.3,0c0,0-0.1,0-0.1,0
		c-0.3,0-0.6,0-0.8,0c-0.1,0-0.1,0-0.2,0c-0.3,0-0.6,0.1-0.9,0.2c-0.3,0.1-0.6,0.2-0.9,0.3c-0.1,0-0.2,0.1-0.2,0.1
		c-0.3,0.1-0.5,0.3-0.8,0.4c0,0,0,0-0.1,0c0,0,0,0,0,0c-0.1,0-0.1,0.1-0.2,0.1c-0.1,0.1-0.3,0.2-0.4,0.3c-0.1,0.1-0.1,0.1-0.2,0.2
		c-0.1,0.1-0.2,0.1-0.3,0.2c0,0,0,0-0.1,0.1c-0.2,0.2-0.5,0.4-0.7,0.7c0,0,0,0,0,0c0,0-0.1,0.1-0.1,0.1c-0.2,0.2-0.3,0.4-0.4,0.6
		c0,0-0.1,0.1-0.1,0.1c0,0,0,0.1-0.1,0.1c-0.1,0.2-0.3,0.4-0.4,0.7c0,0,0,0.1-0.1,0.1c0,0,0,0,0,0c-0.2,0.3-0.3,0.6-0.4,0.9
		c0,0,0,0.1,0,0.1c0,0,0,0.1,0,0.1c-0.1,0.4-0.3,0.7-0.3,1.1c0,0,0,0,0,0c0,0.1-0.1,0.3-0.1,0.4c0,0.1,0,0.2-0.1,0.3
		c0,0.2,0,0.3,0,0.5c0,0.1,0,0.2,0,0.3c0,0.2,0,0.3,0,0.5c0,0.1,0,0.2,0,0.3c0,0.3,0,0.5,0.1,0.8L72.8,60.7z"/>
	<polygon class="st40" points="76.1,61.1 80.1,62.7 81.5,74.7 77.5,73.1 	"/>
	<path class="st41" d="M86.7,56c0,0.3,0,0.5,0,0.8c0,0.2,0,0.3-0.1,0.5c0,0.2,0,0.5-0.1,0.7c0,0.2-0.1,0.3-0.1,0.5
		c0,0.2-0.1,0.5-0.1,0.7c0,0.1,0,0.2-0.1,0.3c-0.1,0.3-0.2,0.6-0.2,0.8c0,0.1-0.1,0.3-0.1,0.4c-0.1,0.2-0.2,0.5-0.3,0.7
		c0,0.1-0.1,0.2-0.1,0.3c-0.1,0.3-0.3,0.6-0.4,0.8c0,0.1-0.1,0.1-0.1,0.2c0,0.1-0.1,0.1-0.1,0.2c-0.2,0.4-0.4,0.7-0.7,1.1
		c-0.1,0.1-0.2,0.2-0.2,0.4c-0.2,0.3-0.5,0.6-0.7,0.9c-0.1,0.1-0.2,0.2-0.3,0.3c-0.1,0.1-0.1,0.1-0.2,0.2c-0.2,0.2-0.4,0.4-0.6,0.6
		c-0.1,0.1-0.1,0.1-0.2,0.2c-0.2,0.2-0.4,0.3-0.6,0.5c-0.1,0.1-0.2,0.2-0.3,0.3c-0.2,0.2-0.4,0.3-0.7,0.5c-0.1,0.1-0.2,0.1-0.2,0.2
		c-0.3,0.2-0.6,0.4-0.9,0.5c-0.1,0-0.2,0.1-0.3,0.1c-0.2,0.1-0.5,0.2-0.7,0.3c-0.1,0-0.2,0.1-0.3,0.1c-0.3,0.1-0.7,0.2-1,0.3l4,1.6
		c0.3-0.1,0.7-0.2,1-0.3c0.1,0,0.2-0.1,0.3-0.1c0.2-0.1,0.5-0.2,0.7-0.3c0.1,0,0.2-0.1,0.3-0.1c0.3-0.2,0.6-0.3,0.9-0.5c0,0,0,0,0,0
		c0.1-0.1,0.2-0.1,0.2-0.2c0.2-0.2,0.4-0.3,0.7-0.5c0.1-0.1,0.2-0.2,0.3-0.3c0.1-0.1,0.3-0.2,0.4-0.3c0,0,0.1-0.1,0.1-0.1
		c0.1-0.1,0.1-0.1,0.2-0.2c0.2-0.2,0.4-0.4,0.6-0.6c0.1-0.1,0.1-0.1,0.2-0.2c0,0,0.1-0.1,0.1-0.1c0.1-0.1,0.1-0.1,0.2-0.2
		c0.2-0.3,0.5-0.6,0.7-0.9c0-0.1,0.1-0.1,0.1-0.2c0-0.1,0.1-0.1,0.1-0.2c0.2-0.4,0.5-0.7,0.7-1.1c0,0,0.1-0.1,0.1-0.1c0,0,0,0,0,0
		c0-0.1,0.1-0.1,0.1-0.2c0.1-0.3,0.3-0.6,0.4-0.8c0-0.1,0.1-0.2,0.1-0.3c0-0.1,0.1-0.2,0.1-0.3c0.1-0.2,0.1-0.3,0.2-0.5
		c0-0.1,0.1-0.3,0.1-0.4c0.1-0.3,0.2-0.6,0.2-0.8c0-0.1,0-0.2,0.1-0.3c0,0,0,0,0,0c0-0.2,0.1-0.4,0.1-0.6c0-0.2,0.1-0.3,0.1-0.5
		c0-0.2,0.1-0.5,0.1-0.7c0-0.2,0-0.3,0.1-0.5c0-0.3,0-0.5,0-0.8c0-0.1,0-0.3,0-0.4c0-0.4,0-0.8-0.1-1.2c-0.5-4.3-3-7.5-6.3-8.8
		l-4-1.6c3.3,1.3,5.8,4.5,6.3,8.8c0,0.4,0.1,0.8,0.1,1.2C86.7,55.8,86.7,55.9,86.7,56z"/>
	<path class="st42" d="M74.7,49.8c3.8-1,7.3,1.5,7.7,5.7c0.5,4.1-2.2,8.3-5.9,9.3l-0.4-3.7l-7.3,8.1l8.7,3.9l-0.4-3.7
		c6.1-1.6,10.3-8.3,9.5-15c-0.8-6.6-6.4-10.7-12.4-9.1c-6.1,1.6-10.3,8.3-9.5,15l4.1-1.1C68.3,55,71,50.8,74.7,49.8z"/>
</g>
</svg>
