<?xml version="1.0" encoding="utf-8"?>
<!-- Generator: Adobe Illustrator 27.5.0, SVG Export Plug-In . SVG Version: 6.00 Build 0)  -->
<svg version="1.1" id="Layer_1" xmlns="http://www.w3.org/2000/svg" xmlns:xlink="http://www.w3.org/1999/xlink" x="0px" y="0px"
	 viewBox="0 0 120 120" style="enable-background:new 0 0 120 120;" xml:space="preserve">
<style type="text/css">
	.st0{fill:#E5DFE0;}
	.st1{fill:#FFBB40;}
	.st2{enable-background:new    ;}
	.st3{fill:#FFFFFF;}
	.st4{fill:#F8FAFF;}
	.st5{fill:#F0F3F8;}
	.st6{fill:#DEE1E6;}
	.st7{fill:#55606E;}
	.st8{fill:#49525E;}
	.st9{fill:#3D454F;}
	.st10{opacity:0.2;enable-background:new    ;}
	.st11{fill:#A0A0A0;}
	.st12{fill:#B4B4B4;}
	.st13{fill:#D5D5D5;}
	.st14{fill:#E66A12;}
	.st15{fill:#FF7614;}
	.st16{fill:#D1C8C4;}
	.st17{fill:#F2E8E3;}
	.st18{fill:#FF8833;}
	.st19{fill:#EF6F22;stroke:#231F20;stroke-width:0.4102;stroke-miterlimit:10;}
	.st20{fill:#231F20;}
	.st21{fill:none;}
	.st22{clip-path:url(#SVGID_00000003072049121992809900000012543235138089656241_);}
	.st23{fill:#2A3138;}
	.st24{opacity:0.1;enable-background:new    ;}
	.st25{fill:url(#SVGID_00000075156562947086170760000011507184132228460453_);}
	.st26{fill:url(#SVGID_00000111189221396192699690000006223082008053341066_);}
	.st27{fill:url(#SVGID_00000035520957652590330760000010471115932965520038_);}
	.st28{opacity:0.2;fill:#75ABE1;enable-background:new    ;}
	.st29{opacity:0.64;fill:#1C1F21;enable-background:new    ;}
	.st30{fill:#3B3D40;}
	.st31{fill:url(#SVGID_00000103228432134988761410000005575697174550639264_);}
	.st32{opacity:0.2;fill:#FFFFFF;enable-background:new    ;}
</style>
<g>
	<path class="st0" d="M15.5,3.5L112.7,60c0,0,1,1.6-0.8,1.5L13.3,4.2C13.3,4.2,12.4,2.6,15.5,3.5z"/>
	<g>
		<g>
			<g>
				<path class="st1" d="M25.8,7.2c1.6,0.9,1.6,2.5,0,3.4c-1.6,0.9-4.3,0.9-5.9,0s-1.6-2.5,0-3.4S24.1,6.3,25.8,7.2z"/>
			</g>
		</g>
		<g class="st2">
			<g>
				<path class="st3" d="M24.1,8.2c0.7,0.4,0.7,1.1,0,1.5s-1.9,0.4-2.6,0s-0.7-1.1,0-1.5S23.4,7.8,24.1,8.2z"/>
			</g>
		</g>
	</g>
	<g>
		<path class="st1" d="M44.9,18.3c1.6,0.9,1.6,2.5,0,3.4s-4.3,0.9-5.9,0c-1.6-0.9-1.6-2.5,0-3.4C40.7,17.3,43.3,17.3,44.9,18.3z"/>
		<path class="st3" d="M43.3,19.2c0.7,0.4,0.7,1.1,0,1.5s-1.9,0.4-2.6,0c-0.7-0.4-0.7-1.1,0-1.5C41.4,18.8,42.6,18.8,43.3,19.2z"/>
	</g>
	<g>
		<path class="st1" d="M65.3,30c1.6,0.9,1.6,2.5,0,3.4s-4.3,0.9-5.9,0c-1.6-0.9-1.6-2.5,0-3.4C61,29,63.6,29,65.3,30z"/>
		<path class="st3" d="M63.6,31c0.7,0.4,0.7,1.1,0,1.5c-0.7,0.4-1.9,0.4-2.6,0c-0.7-0.4-0.7-1.1,0-1.5C61.7,30.5,62.9,30.5,63.6,31z
			"/>
	</g>
	<g>
		<path class="st1" d="M85.6,41.7c1.6,0.9,1.6,2.5,0,3.4s-4.3,0.9-5.9,0s-1.6-2.5,0-3.4C81.3,40.8,83.9,40.8,85.6,41.7z"/>
		<path class="st3" d="M83.9,42.7c0.7,0.4,0.7,1.1,0,1.5s-1.9,0.4-2.6,0s-0.7-1.1,0-1.5S83.2,42.3,83.9,42.7z"/>
	</g>
	<g>
		<g class="st2">
			<g>
				<path class="st1" d="M109,53c2.7,1.5,2.7,4.2,0,5.7c-2.7,1.5-7.2,1.5-9.8,0c-2.7-1.5-2.7-4.2,0-5.7
					C101.8,51.3,106.3,51.3,109,53z"/>
			</g>
		</g>
		<g class="st2">
			<g>
				<path class="st3" d="M106.1,54.7c1.2,0.7,1.2,1.8,0,2.5s-3.2,0.7-4.3,0s-1.2-1.8,0-2.5C103.1,54,105,54,106.1,54.7z"/>
			</g>
		</g>
	</g>
</g>
<g>
	<g>
		<g>
			<polygon class="st4" points="3.3,58.2 6.1,59.8 71.4,21.8 68.7,20.4 			"/>
			<polygon class="st5" points="6.1,59.8 71.4,21.8 71.4,77.6 6.1,115.5 			"/>
			<polygon class="st6" points="6.1,59.8 6.1,115.5 3.3,113.9 3.3,58.2 			"/>
		</g>
		<g>
			<polygon class="st7" points="3.3,42.6 6.1,44.2 71.4,6.2 68.7,4.8 			"/>
			<polygon class="st8" points="6.1,44.2 71.4,6.2 71.4,25.3 6.1,63.1 			"/>
			<polygon class="st9" points="6.1,44.2 6.1,63.1 3.3,61.5 3.3,42.6 			"/>
		</g>
	</g>
	<g>
		<polygon class="st10" points="52.9,20.9 52.9,25.3 59.2,21.6 59.2,17.2 		"/>
		<g>
			<path class="st11" d="M57.2,5.6c-2.4-1.4-4.5-1.5-5.8-0.6l-3.7,2.1c-0.9,0.7-1.5,1.9-1.5,3.5c0,4,3.3,9.2,7.3,11.6
				c2.3,1.4,4.4,1.5,5.7,0.6l3.7-2.1c1-0.7,1.6-1.9,1.6-3.6C64.5,13.2,61.2,8,57.2,5.6z M58.3,18.5c-3.2-1.9-5.9-5.9-6.3-9.2
				c0.1,0.1,0.3,0.1,0.4,0.2c3.2,1.9,5.9,5.9,6.3,9.2C58.5,18.6,58.4,18.6,58.3,18.5z"/>
			<path class="st12" d="M53.5,7.7c-2.4-1.4-4.5-1.5-5.8-0.6c-0.9,0.7-1.5,1.9-1.5,3.5c0,4,3.3,9.2,7.3,11.6
				c2.3,1.4,4.4,1.5,5.7,0.6c1-0.7,1.6-1.9,1.6-3.6C60.8,15.3,57.5,10.1,53.5,7.7z M58,21.2c-0.2,0.1-0.5,0.2-0.9,0.2
				c-0.7,0-1.7-0.3-2.7-0.9c-3.4-2-6.3-6.5-6.3-9.8c0-0.5,0.1-1.5,0.6-1.9c0.2-0.2,0.5-0.2,0.9-0.2c0.7,0,1.7,0.3,2.7,0.9
				c3.4,2,6.3,6.5,6.3,9.8C58.7,19.9,58.6,20.9,58,21.2z"/>
			<path class="st13" d="M58.7,18.6C58.7,18.6,58.7,18.7,58.7,18.6C58.7,18.7,58.7,18.7,58.7,18.6C58.7,18.7,58.7,18.6,58.7,18.6z
				 M57.2,5.6c-2.4-1.4-4.5-1.5-5.8-0.6l-3.2,1.8c1.3-0.6,3.2-0.3,5.2,0.9c4,2.4,7.3,7.6,7.3,11.6c0,1.7-0.6,3-1.6,3.6l3.7-2.1
				c1-0.7,1.6-1.9,1.6-3.6C64.5,13.2,61.2,8,57.2,5.6z"/>
		</g>
		<g>
			<polygon class="st8" points="52.9,25.3 52.9,20.9 57.9,18 56.8,14.6 48,19.8 			"/>
		</g>
		<polygon class="st7" points="48,19.8 56.8,14.6 55.1,12.7 46.4,17.7 		"/>
	</g>
	<g>
		<polygon class="st10" points="19.6,40.3 19.6,44.7 25.9,41 25.9,36.6 		"/>
		<g>
			<path class="st11" d="M23.9,25c-2.4-1.4-4.5-1.5-5.8-0.6l-3.7,2.1c-0.9,0.7-1.5,1.9-1.5,3.5c0,4,3.3,9.2,7.3,11.6
				c2.3,1.4,4.4,1.5,5.7,0.6l3.7-2.1c1-0.7,1.6-1.9,1.6-3.6C31.2,32.6,27.9,27.4,23.9,25z M24.9,37.9C21.7,36,19,32,18.6,28.7
				c0.1,0.1,0.3,0.1,0.4,0.2c3.2,1.9,5.9,5.9,6.3,9.2C25.2,38,25.1,38,24.9,37.9z"/>
			<path class="st12" d="M20.2,27.1c-2.4-1.4-4.5-1.5-5.8-0.6c-0.9,0.7-1.5,1.9-1.5,3.5c0,4,3.3,9.2,7.3,11.6
				c2.3,1.4,4.4,1.5,5.7,0.6c1-0.7,1.6-1.9,1.6-3.6C27.5,34.7,24.2,29.5,20.2,27.1z M24.7,40.7c-0.2,0.1-0.5,0.2-0.9,0.2
				c-0.7,0-1.7-0.3-2.7-0.9c-3.4-2-6.3-6.5-6.3-9.8c0-0.5,0.1-1.5,0.6-1.9c0.2-0.2,0.5-0.2,0.9-0.2c0.7,0,1.7,0.3,2.7,0.9
				c3.4,2,6.3,6.5,6.3,9.8C25.4,39.3,25.3,40.3,24.7,40.7z"/>
			<path class="st13" d="M25.3,38C25.3,38,25.3,38.1,25.3,38C25.3,38.1,25.4,38.1,25.3,38C25.4,38.1,25.3,38,25.3,38z M23.9,25
				c-2.4-1.4-4.5-1.5-5.8-0.6l-3.2,1.8c1.3-0.6,3.2-0.3,5.2,0.9c4,2.4,7.3,7.6,7.3,11.6c0,1.7-0.6,3-1.6,3.6l3.7-2.1
				c1-0.7,1.6-1.9,1.6-3.6C31.2,32.6,27.9,27.4,23.9,25z"/>
		</g>
		<g>
			<polygon class="st8" points="19.6,44.7 19.6,40.3 24.5,37.4 23.5,34.1 14.7,39.2 			"/>
		</g>
		<polygon class="st7" points="14.7,39.2 23.5,34.1 21.6,32 12.9,37 		"/>
	</g>
</g>
<g>
	<g>
		<g>
			<polygon class="st14" points="70.3,65.2 70.3,98.4 50,86.7 50,53.4 			"/>
			<polygon class="st15" points="85.3,56.5 85.3,89.9 70.3,98.4 70.3,65.2 			"/>
			<polygon class="st16" points="70.3,92.6 50,80.7 50,86.7 70.3,98.4 			"/>
			<polygon class="st17" points="70.3,98.4 85.3,89.9 85.3,83.9 70.3,92.6 			"/>
			<polygon class="st18" points="65,44.8 85.3,56.5 70.3,65.2 50,53.4 			"/>
			<g>
				<g>
					<path class="st19" d="M83.3,68.3c0,3.1-2.5,7.1-5.6,8.9c-3.1,1.9-5.6,0.8-5.6-2.2s2.5-7.1,5.6-8.9
						C80.9,64.3,83.3,65.3,83.3,68.3z"/>
					<path class="st20" d="M81.4,69.5c0,2-1.7,4.7-3.7,6c-2,1.2-3.7,0.6-3.7-1.5s1.7-4.7,3.7-6C79.9,66.8,81.4,67.4,81.4,69.5z"/>
					<polygon class="st3" points="80,68.5 77.8,69.8 77.8,69.8 75.6,71.2 75.6,72.5 77,71.7 77,74.8 77.8,74.3 78.6,73.8 78.6,70.7 
						80,69.8 					"/>
				</g>
				<polygon class="st21" points="84.4,74.4 71.1,82.5 71.1,69.1 84.4,61 				"/>
			</g>
		</g>
		<g>
			<g>
				<g>
					<g>
						<g>
							<g>
								<defs>
									<polygon id="SVGID_1_" points="67.4,96.8 40.1,112.6 12.9,96.7 12.9,77.5 52.4,54.7 57.4,57.5 50,61.7 50,67.4 67.4,77.6 
																			"/>
								</defs>
								<clipPath id="SVGID_00000102506105652975812200000013747558907449151377_">
									<use xlink:href="#SVGID_1_"  style="overflow:visible;"/>
								</clipPath>
								<g style="clip-path:url(#SVGID_00000102506105652975812200000013747558907449151377_);">
									<polygon class="st15" points="50,67.4 50,86.7 62.3,79.6 62.3,60.2 									"/>
									<polygon class="st17" points="40.1,93.3 40.1,112.6 67.4,96.8 67.4,77.6 									"/>
									<polygon class="st16" points="40.1,93.3 40.1,112.6 12.9,96.7 12.9,77.5 									"/>
									<polygon class="st15" points="40.1,103.1 67.4,87.3 67.4,77.6 40.1,93.3 									"/>
									<polygon class="st14" points="40.1,93.3 12.9,77.5 12.9,87.3 40.1,103.1 									"/>
									<polygon class="st18" points="50,56 50,67.4 67.4,77.6 40.1,93.3 12.9,77.5 									"/>
									<polygon class="st17" points="40.1,91.5 15.8,77.5 50,57.6 50,65.7 47.1,67.4 64.4,77.6 									"/>
									<g>
										<polygon class="st16" points="50,57.6 15.8,77.5 16.8,78 50,58.9 										"/>
									</g>
									<polygon class="st16" points="63.4,78.1 64.4,77.6 47.1,67.4 47.1,68.5 									"/>
									<polygon class="st7" points="43.5,103.6 43.5,110.6 49.4,107.3 49.4,100.2 									"/>
									<polygon class="st7" points="51.4,99.1 51.4,106.1 57.2,102.7 57.2,95.7 									"/>
									<polygon class="st7" points="59.2,94.6 59.2,101.6 65.1,98.2 65.1,91.2 									"/>
								</g>
							</g>
						</g>
					</g>
				</g>
			</g>
		</g>
		<g>
			<polygon class="st23" points="69.2,87.3 66.6,84.7 64.7,86 62.6,87.1 60.7,88.2 58.7,89.4 56.7,90.5 54.8,91.6 52.9,92.7 
				50.8,93.9 48.9,95 46.9,96.2 44.8,97.3 42.9,98.4 40.9,99.6 40.9,101.9 44,103.8 46.1,102.6 48,101.5 50,100.3 52,99.2 54,98.1 
				55.9,96.8 58,95.7 59.8,94.6 61.8,93.4 63.8,92.3 65.8,91.2 67.8,90 69.8,88.8 			"/>
			<g>
				<polygon class="st14" points="40.9,101.9 44,103.8 43.5,102.2 40.9,99.6 				"/>
				<polygon class="st18" points="46.1,102.6 45.5,101 42.9,98.4 40.9,99.6 43.5,102.2 44,103.8 				"/>
				<polygon class="st18" points="50,100.3 49.5,98.8 46.9,96.2 44.8,97.3 47.5,99.9 48,101.5 				"/>
				<polygon class="st18" points="54,98.1 53.4,96.5 50.8,93.9 48.9,95 51.5,97.6 52,99.2 				"/>
				<polygon class="st18" points="58,95.7 57.4,94.2 54.8,91.6 52.9,92.7 55.5,95.4 55.9,96.8 				"/>
				<polygon class="st18" points="61.8,93.4 61.3,92 58.7,89.4 56.7,90.5 59.3,93.1 59.8,94.6 				"/>
				<polygon class="st18" points="65.8,91.2 65.2,89.7 62.6,87.1 60.7,88.2 63.3,90.8 63.8,92.3 				"/>
				<polygon class="st18" points="69.8,88.8 69.2,87.3 66.6,84.7 64.7,86 67.3,88.6 67.8,90 				"/>
			</g>
			<polygon class="st24" points="43.5,102.2 44,103.8 69.8,88.8 69.2,87.3 			"/>
		</g>
	</g>
</g>
<g>
	<g>
		
			<linearGradient id="SVGID_00000046299263811363767000000001466352820746885275_" gradientUnits="userSpaceOnUse" x1="106.7431" y1="32.1389" x2="108.3137" y2="39.1057" gradientTransform="matrix(0.9534 0.3017 0.3017 -0.9534 -8.5864 96.5818)">
			<stop  offset="0" style="stop-color:#27282E"/>
			<stop  offset="0.7004" style="stop-color:#51545C"/>
			<stop  offset="1" style="stop-color:#42444A"/>
		</linearGradient>
		<path style="fill:url(#SVGID_00000046299263811363767000000001466352820746885275_);" d="M116.5,95.5c-0.3-0.2-0.6-0.5-1-0.7
			L95.1,84c0.2,0.1,0.3,0.3,0.3,0.4c1.6,1.5,1.5,4.2,0,6l0,0c-1.5,1.8-3.6,2.2-5.2,1.1l19.5,13c1.9,1.3,4.7,0.7,6.6-1.4h0.1
			C118.4,100.9,118.4,97.4,116.5,95.5z"/>
	</g>
	
		<linearGradient id="SVGID_00000031165380218210697420000004424916065274483631_" gradientUnits="userSpaceOnUse" x1="92.2465" y1="87.1552" x2="95.1545" y2="75.253" gradientTransform="matrix(0.9534 0.3017 -0.3017 0.9534 27.6129 -17.8274)">
		<stop  offset="0.151" style="stop-color:#868A9E"/>
		<stop  offset="0.607" style="stop-color:#B9C0D1"/>
		<stop  offset="0.7692" style="stop-color:#A6ABBA"/>
	</linearGradient>
	<path style="fill:url(#SVGID_00000031165380218210697420000004424916065274483631_);" d="M98.1,84.9c-0.2-0.2-0.5-0.4-0.7-0.6
		l-6.2-3.7c0.2,0.2,0.6,0.3,0.7,0.6c1.9,1.8-4.1,1.7-6,4c-1.7,2,1.5,6-0.4,4.9l6.2,3.7c1.9,1.1,4.4,0.6,6.1-1.5
		C99.9,90,100,86.7,98.1,84.9z"/>
	<g>
		
			<linearGradient id="SVGID_00000149359521574881400880000012029026935561117315_" gradientUnits="userSpaceOnUse" x1="65.9209" y1="103.2414" x2="91.2917" y2="59.2981" gradientTransform="matrix(1 -5.902350e-03 5.902350e-03 1 -0.4451 0.4907)">
			<stop  offset="8.099976e-03" style="stop-color:#535661"/>
			<stop  offset="0.353" style="stop-color:#52545E"/>
			<stop  offset="1" style="stop-color:#31333A"/>
		</linearGradient>
		<path style="fill:url(#SVGID_00000149359521574881400880000012029026935561117315_);" d="M88.6,57.7l-7.3-4.2
			c3.3,1.9,5.3,5.9,5.3,11.5c0.1,11.4-7.9,25.4-17.7,31.2c-5,2.9-9.5,3.2-12.8,1.3l7.3,4.2c3.3,1.9,7.8,1.6,12.8-1.3
			C86,94.6,94,80.6,93.9,69.2C93.7,63.6,91.7,59.6,88.6,57.7z"/>
		<path class="st28" d="M73.9,99.2c9.9-5.8,17.8-19.8,17.7-31.2s-8.2-16-18.1-10.2C63.7,63.6,55.7,77.6,55.8,89
			C55.9,100.4,63.9,105,73.9,99.2z"/>
		<path class="st29" d="M84.8,55.7c2.5,2.1,4,5.7,4.1,10.6C89,77.7,81,91.7,71.2,97.5c-4.2,2.5-8.3,3.1-11.4,1.9
			c3.4,2.9,8.4,3,14.2-0.3c9.9-5.8,17.8-19.8,17.7-31.2C91.6,61.5,88.9,57.2,84.8,55.7z"/>
		<g>
			<g>
				<g class="st2">
					<g>
						<path class="st30" d="M75.6,56c11.4-6.7,20.7-1.4,20.8,11.7c0.1,13.2-9,29.1-20.4,35.7c-11.4,6.7-20.7,1.4-20.8-11.7
							C55.2,78.6,64.3,62.6,75.6,56z M76,100.4c9.9-5.8,17.8-19.8,17.7-31.2c-0.1-11.4-8.2-16-18.1-10.2S57.9,78.8,57.9,90.2
							C58,101.6,66.2,106.2,76,100.4z"/>
					</g>
				</g>
			</g>
		</g>
		<g>
			
				<linearGradient id="SVGID_00000150782797861843955130000018044672454580956560_" gradientUnits="userSpaceOnUse" x1="50.3926" y1="98.6169" x2="79.5142" y2="48.1767" gradientTransform="matrix(1 -5.902350e-03 5.902350e-03 1 -0.4451 0.4907)">
				<stop  offset="0" style="stop-color:#31333A"/>
				<stop  offset="0.647" style="stop-color:#52545E"/>
				<stop  offset="0.9919" style="stop-color:#535661"/>
			</linearGradient>
			<path style="fill:url(#SVGID_00000150782797861843955130000018044672454580956560_);" d="M83,50.2c-3.8-2.1-8.9-1.8-14.7,1.5
				C57,58.4,47.9,74.5,48,87.5c0,6.5,2.3,11,6.1,13.3l7.3,4.2c-3.8-2.1-6.1-6.7-6.1-13.3c-0.1-13.2,9-29.1,20.4-35.7
				c5.7-3.3,10.9-3.7,14.7-1.5L83,50.2z"/>
		</g>
		<path class="st32" d="M80.2,62.1c2.4,2,1.9,6.5-1.1,9.9c-2.9,3.4-7.3,4.6-9.6,2.6c-2.4-2-1.9-6.5,1.1-9.9
			C73.5,61.3,77.9,60.2,80.2,62.1z"/>
	</g>
</g>
</svg>
