<?xml version="1.0" encoding="utf-8"?>
<!-- Generator: Adobe Illustrator 27.7.0, SVG Export Plug-In . SVG Version: 6.00 Build 0)  -->
<svg version="1.1" id="Layer_1" xmlns="http://www.w3.org/2000/svg" xmlns:xlink="http://www.w3.org/1999/xlink" x="0px" y="0px"
	 viewBox="0 0 120 120" style="enable-background:new 0 0 120 120;" xml:space="preserve">
<style type="text/css">
	.st0{enable-background:new    ;}
	.st1{fill:#ED9F19;}
	.st2{fill:#9E7907;}
	.st3{fill:#9F9F9F;}
	.st4{fill:#EFEFEF;}
	.st5{fill:#F5B400;}
	.st6{fill:#F59700;}
	.st7{opacity:0.7;fill:#BFBFBF;enable-background:new    ;}
	.st8{fill:#8F2A1F;}
	.st9{fill:#C74536;}
	.st10{fill:#AB3529;}
	.st11{fill:#ED604F;}
	.st12{fill:#E0E0E0;}
	.st13{fill:#BCDFFF;}
	.st14{fill:#595959;}
	.st15{fill:#2ED0FF;}
	.st16{fill:#B8D4ED;}
	.st17{fill:#CCCCCC;}
	.st18{fill:#FFAD93;}
	.st19{fill:#EBEBEB;}
	.st20{fill:#F0F0F0;}
	.st21{fill:#FAFAFA;}
	.st22{fill:#F89D81;}
	.st23{fill:#C1C1E8;}
	.st24{fill:#464654;}
	.st25{fill:#66667A;}
	.st26{fill:#919BBD;}
	.st27{fill:#A5B0D6;}
	.st28{fill:#784A1D;}
	.st29{fill:#633D18;}
	.st30{fill:#FFBCA3;}
	.st31{fill:#EDEAFB;}
	.st32{fill:url(#SVGID_1_);}
	.st33{fill:#EEEBFC;}
	.st34{fill:url(#SVGID_00000057829932923716142600000016213320303261458848_);}
	.st35{fill:#3E70FA;}
	.st36{fill:#4072FE;}
	.st37{fill:#2D2B2B;}
	.st38{fill:#5683FF;}
	.st39{fill:#EF6F22;}
	.st40{fill:#231F20;}
	.st41{fill:#FFFFFF;}
	.st42{fill:none;}
	.st43{opacity:0.1;}
	.st44{fill:#322C2C;}
	.st45{fill:#201C1C;}
	.st46{fill:#2E2A29;}
	.st47{fill:#282323;}
	.st48{fill:#515151;}
	.st49{fill:#AF947B;}
	.st50{fill:#FFF9ED;}
	.st51{fill:#171737;}
	.st52{fill:#C3BEB1;}
	.st53{fill:#ECE5D9;}
	.st54{fill:#F7F2EB;}
	.st55{fill:#FFC6A6;}
	.st56{fill:#F2B597;}
	.st57{fill:#C47C5C;}
</style>
<g>
	<g class="st0">
		<g class="st0">
			<g>
				<path class="st1" d="M-431-84.1l3.1-1.8c0.1,0.4,0.1,0.6,0,0.7l-3.1,1.8C-430.9-83.5-430.9-83.7-431-84.1L-431-84.1z"/>
			</g>
		</g>
		<g class="st0">
			<g class="st0">
				<path class="st2" d="M-448.8-115.2l3.1-1.8c-0.4,0.3-0.7,0.8-0.7,1.6c0,1.5,1.1,3.4,2.4,4.2l-3.1,1.8c-1.3-0.8-2.4-2.6-2.4-4.2
					C-449.5-114.4-449.3-114.9-448.8-115.2L-448.8-115.2z"/>
			</g>
		</g>
		<g class="st0">
			<g class="st0">
				<path class="st3" d="M-448.8-115.2l3.1-1.8c0.4-0.3,1.1-0.2,1.7,0.2l-3.1,1.8C-447.8-115.4-448.4-115.4-448.8-115.2
					L-448.8-115.2z"/>
			</g>
		</g>
		<g class="st0">
			<g class="st0">
				<path class="st3" d="M-447.1-115l3.1-1.8c1.3,0.8,2.4,2.7,2.4,4.2c0,0.8-0.3,1.3-0.7,1.6l-3.1,1.8c0.4-0.3,0.7-0.8,0.7-1.6
					C-444.7-112.3-445.8-114.2-447.1-115L-447.1-115z"/>
			</g>
		</g>
		<g>
			<polygon class="st1" points="-433,-92.2 -429.9,-94 -427.9,-85.9 -431,-84.1 			"/>
		</g>
		<g class="st0">
			<g class="st0">
				<path class="st2" d="M-441.4-110.9l3.1-1.8c-0.4,0.3-0.7,0.8-0.7,1.6c0,1.5,1.1,3.4,2.4,4.2l-3.1,1.8c-1.3-0.8-2.4-2.6-2.4-4.2
					C-442.1-110.1-441.8-110.6-441.4-110.9L-441.4-110.9z"/>
			</g>
		</g>
		<g class="st0">
			<g class="st0">
				<path class="st3" d="M-441.4-110.9l3.1-1.8c0.4-0.3,1.1-0.2,1.7,0.2l-3.1,1.8C-440.3-111.1-440.9-111.1-441.4-110.9
					L-441.4-110.9z"/>
			</g>
		</g>
		<g class="st0">
			<g class="st0">
				<path class="st3" d="M-439.7-110.7l3.1-1.8c1.3,0.8,2.4,2.6,2.4,4.2c0,0.8-0.3,1.3-0.7,1.6l-3.1,1.8c0.4-0.3,0.7-0.8,0.7-1.6
					C-437.2-108-438.3-109.9-439.7-110.7L-439.7-110.7z"/>
			</g>
		</g>
		<g>
			<path class="st4" d="M-439.7-110.7c1.3,0.8,2.4,2.6,2.4,4.2c0,1.5-1.1,2.2-2.4,1.4c-1.3-0.8-2.4-2.6-2.4-4.2
				C-442.1-110.8-441-111.5-439.7-110.7z"/>
		</g>
		<g class="st0">
			<g class="st0">
				<path class="st2" d="M-433.9-106.6l3.1-1.8c-0.4,0.3-0.7,0.8-0.7,1.6c0,1.5,1.1,3.4,2.4,4.2l-3.1,1.8c-1.3-0.8-2.4-2.6-2.4-4.2
					C-434.6-105.8-434.4-106.3-433.9-106.6L-433.9-106.6z"/>
			</g>
		</g>
		<g class="st0">
			<g class="st0">
				<path class="st3" d="M-433.9-106.6l3.1-1.8c0.4-0.3,1.1-0.2,1.7,0.2l-3.1,1.8C-432.9-106.8-433.5-106.8-433.9-106.6
					L-433.9-106.6z"/>
			</g>
		</g>
		<g class="st0">
			<g class="st0">
				<path class="st3" d="M-432.2-106.4l3.1-1.8c1.3,0.8,2.4,2.6,2.4,4.2c0,0.8-0.3,1.3-0.7,1.6l-3.1,1.8c0.4-0.3,0.7-0.8,0.7-1.6
					C-429.8-103.7-430.9-105.6-432.2-106.4L-432.2-106.4z"/>
			</g>
		</g>
		<g>
			<path class="st4" d="M-432.2-106.4c1.3,0.8,2.4,2.6,2.4,4.2c0,1.5-1.1,2.2-2.4,1.4c-1.3-0.8-2.4-2.6-2.4-4.2
				C-434.6-106.5-433.5-107.2-432.2-106.4z"/>
		</g>
		<g>
			<path class="st5" d="M-428.4-114.6c2.1,1.2,3.8,4.2,3.8,6.6v16.2c0,2.4-1.7,3.4-3.8,2.2l-4.5-2.6l2,8.1c0.1,0.6,0,0.8-0.2,0.6
				c-0.1-0.1-0.3-0.2-0.4-0.4l-10.8-13.5c-0.1-0.1-0.2-0.3-0.3-0.4l-8.4-4.8c-2.1-1.2-3.8-4.2-3.8-6.6v-16.2c0-2.4,1.7-3.4,3.8-2.2
				L-428.4-114.6z M-447.1-109.4c1.3,0.8,2.4,0.2,2.4-1.4c0-1.5-1.1-3.4-2.4-4.2c-1.3-0.8-2.4-0.2-2.4,1.4
				C-449.5-112.1-448.5-110.2-447.1-109.4L-447.1-109.4z M-439.7-105.1c1.3,0.8,2.4,0.2,2.4-1.4c0-1.5-1.1-3.4-2.4-4.2
				c-1.3-0.8-2.4-0.2-2.4,1.4C-442.1-107.8-441-105.9-439.7-105.1L-439.7-105.1z M-432.2-100.8c1.3,0.8,2.4,0.2,2.4-1.4
				c0-1.5-1.1-3.4-2.4-4.2c-1.3-0.8-2.4-0.2-2.4,1.4C-434.6-103.5-433.6-101.6-432.2-100.8L-432.2-100.8z"/>
		</g>
		<g>
			<path class="st4" d="M-447.1-115c1.3,0.8,2.4,2.7,2.4,4.2c0,1.5-1.1,2.2-2.4,1.4c-1.3-0.8-2.4-2.6-2.4-4.2
				S-448.4-115.8-447.1-115z"/>
		</g>
		<g class="st0">
			<g>
				<path class="st1" d="M-453.6-127.8l3.1-1.8c0.7-0.4,1.7-0.3,2.7,0.3l-3.1,1.8C-451.9-128.2-452.9-128.2-453.6-127.8
					L-453.6-127.8z"/>
			</g>
		</g>
		<g class="st0">
			<g>
				<path class="st1" d="M-424.6-91.8l3.1-1.8c0,1.2-0.4,2-1.1,2.4l-3.1,1.8C-425.1-89.8-424.6-90.6-424.6-91.8L-424.6-91.8z"/>
			</g>
		</g>
		<g>
			<polygon class="st1" points="-424.6,-108 -421.5,-109.8 -421.5,-93.6 -424.6,-91.8 			"/>
		</g>
		<g>
			<polygon class="st6" points="-450.9,-127.6 -447.8,-129.4 -425.3,-116.4 -428.4,-114.6 			"/>
		</g>
		<g class="st0">
			<g>
				<path class="st1" d="M-428.4-114.6l3.1-1.8c2.1,1.2,3.8,4.2,3.8,6.6l-3.1,1.8C-424.6-110.4-426.3-113.4-428.4-114.6
					L-428.4-114.6z"/>
			</g>
		</g>
	</g>
</g>
<g>
	<path class="st7" d="M349.7-50.1l-1.8,0.9l-21.1-13.2c-2.7-1.7-7.6-1.6-10.9,0.1l-22.4,11.6c-3.3,1.7-3.9,4.5-1.2,6.2l5.8,3.6
		l22.8,14.3c2.7,1.7,7.6,1.6,10.9-0.1l8.5-4.4l-4,11.1c0,0-0.1,0.4,0.3,0.5c0.5,0.1,1.2-0.4,1.2-0.4l11.4-6.7l4.3,2.7
		c2,1.2,5.6,1.2,8-0.1l16.5-8.6c2.4-1.3,2.8-3.3,0.9-4.5l-21.1-13.2C355.8-51.4,352.2-51.4,349.7-50.1z"/>
	<g>
		<g class="st0">
			<g class="st0">
				<g class="st0">
					<path class="st8" d="M307.6-24l3.1-1.8l0,0L307.6-24C307.5-24,307.6-24,307.6-24L307.6-24z"/>
				</g>
			</g>
			<g class="st0">
				<g>
					<path class="st9" d="M284.9-69.3l3.1-1.8c0.9-0.5,2.2-0.5,3.7,0.4l-3.1,1.8C287.1-69.8,285.8-69.8,284.9-69.3L284.9-69.3z"/>
				</g>
			</g>
			<g class="st0">
				<g>
					<path class="st10" d="M324.2-20.4l3.1-1.8c0,1.6-0.6,2.8-1.5,3.3l-3.1,1.8C323.6-17.6,324.2-18.7,324.2-20.4L324.2-20.4z"/>
				</g>
			</g>
			<g>
				<polygon class="st10" points="324.2,-42.4 327.3,-44.2 327.3,-22.2 324.2,-20.4 				"/>
			</g>
			<g>
				<polygon class="st9" points="288.5,-68.9 291.6,-70.7 322.2,-53.1 319.1,-51.3 				"/>
			</g>
			<g class="st0">
				<g class="st0">
					<path class="st8" d="M319.1-51.3l3.1-1.8c2.8,1.6,5.2,5.7,5.2,8.9l-3.1,1.8C324.2-45.6,321.9-49.7,319.1-51.3L319.1-51.3z"/>
				</g>
			</g>
			<g>
				<path class="st11" d="M319.1-51.3c2.8,1.6,5.2,5.7,5.2,8.9l-0.1,22c0,3.3-2.3,4.6-5.2,3L307.6-24c-0.1,0.1-0.2,0.1-0.4,0.1
					l-14.6,1.5c-0.2,0-0.4,0-0.6-0.1c-0.3-0.2-0.5-0.6-0.3-1.2l2.8-7.9l-6.2-3.6c-2.8-1.6-5.2-5.7-5.2-8.9l0.1-22
					c0-3.3,2.3-4.6,5.2-3L319.1-51.3z"/>
			</g>
		</g>
	</g>
	<g>
		<g class="st0">
			<g class="st0">
				<g>
					<path class="st1" d="M334.4-18.6l3.1-1.8c0.1,0.4,0.1,0.6,0,0.7l-3.1,1.8C334.5-18,334.5-18.2,334.4-18.6L334.4-18.6z"/>
				</g>
			</g>
			<g class="st0">
				<g class="st0">
					<path class="st2" d="M316.6-49.7l3.1-1.8c-0.4,0.3-0.7,0.8-0.7,1.6c0,1.5,1.1,3.4,2.4,4.2l-3.1,1.8c-1.3-0.8-2.4-2.6-2.4-4.2
						C315.8-48.9,316.1-49.4,316.6-49.7L316.6-49.7z"/>
				</g>
			</g>
			<g class="st0">
				<g class="st0">
					<path class="st3" d="M316.6-49.7l3.1-1.8c0.4-0.3,1.1-0.2,1.7,0.2l-3.1,1.8C317.6-49.9,317-49.9,316.6-49.7L316.6-49.7z"/>
				</g>
			</g>
			<g class="st0">
				<g class="st0">
					<path class="st3" d="M318.3-49.5l3.1-1.8c1.3,0.8,2.4,2.7,2.4,4.2c0,0.8-0.3,1.3-0.7,1.6l-3.1,1.8c0.4-0.3,0.7-0.8,0.7-1.6
						C320.7-46.9,319.6-48.8,318.3-49.5L318.3-49.5z"/>
				</g>
			</g>
			<g>
				<polygon class="st1" points="332.4,-26.8 335.5,-28.6 337.5,-20.4 334.4,-18.6 				"/>
			</g>
			<g class="st0">
				<g class="st0">
					<path class="st2" d="M324-45.4l3.1-1.8c-0.4,0.3-0.7,0.8-0.7,1.6c0,1.5,1.1,3.4,2.4,4.2l-3.1,1.8c-1.3-0.8-2.4-2.6-2.4-4.2
						C323.3-44.6,323.6-45.1,324-45.4L324-45.4z"/>
				</g>
			</g>
			<g class="st0">
				<g class="st0">
					<path class="st3" d="M324-45.4l3.1-1.8c0.4-0.3,1.1-0.2,1.7,0.2l-3.1,1.8C325.1-45.6,324.4-45.6,324-45.4L324-45.4z"/>
				</g>
			</g>
			<g class="st0">
				<g class="st0">
					<path class="st3" d="M325.7-45.2l3.1-1.8c1.3,0.8,2.4,2.6,2.4,4.2c0,0.8-0.3,1.3-0.7,1.6l-3.1,1.8c0.4-0.3,0.7-0.8,0.7-1.6
						C328.1-42.6,327.1-44.4,325.7-45.2L325.7-45.2z"/>
				</g>
			</g>
			<g>
				<path class="st4" d="M325.7-45.2c1.3,0.8,2.4,2.6,2.4,4.2c0,1.5-1.1,2.2-2.4,1.4s-2.4-2.6-2.4-4.2
					C323.3-45.4,324.4-46,325.7-45.2z"/>
			</g>
			<g class="st0">
				<g class="st0">
					<path class="st2" d="M331.5-41.1l3.1-1.8c-0.4,0.3-0.7,0.8-0.7,1.6c0,1.5,1.1,3.4,2.4,4.2l-3.1,1.8c-1.3-0.8-2.4-2.6-2.4-4.2
						C330.7-40.3,331-40.8,331.5-41.1L331.5-41.1z"/>
				</g>
			</g>
			<g class="st0">
				<g class="st0">
					<path class="st3" d="M331.5-41.1l3.1-1.8c0.4-0.3,1.1-0.2,1.7,0.2l-3.1,1.8C332.5-41.3,331.9-41.3,331.5-41.1L331.5-41.1z"/>
				</g>
			</g>
			<g class="st0">
				<g class="st0">
					<path class="st3" d="M333.2-40.9l3.1-1.8c1.3,0.8,2.4,2.6,2.4,4.2c0,0.8-0.3,1.3-0.7,1.6l-3.1,1.8c0.4-0.3,0.7-0.8,0.7-1.6
						C335.6-38.3,334.5-40.1,333.2-40.9L333.2-40.9z"/>
				</g>
			</g>
			<g>
				<path class="st4" d="M333.2-40.9c1.3,0.8,2.4,2.6,2.4,4.2c0,1.5-1.1,2.2-2.4,1.4s-2.4-2.6-2.4-4.2
					C330.8-41.1,331.8-41.7,333.2-40.9z"/>
			</g>
			<g>
				<path class="st5" d="M337-49.1c2.1,1.2,3.8,4.2,3.8,6.6v16.2c0,2.4-1.7,3.4-3.8,2.2l-4.5-2.6l2,8.1c0.1,0.6,0,0.8-0.2,0.6
					c-0.1-0.1-0.3-0.2-0.4-0.4l-10.7-13.5c-0.1-0.1-0.2-0.3-0.3-0.4l-8.4-4.8c-2.1-1.2-3.8-4.2-3.8-6.6v-16.2c0-2.4,1.7-3.4,3.8-2.2
					L337-49.1z M318.3-43.9c1.3,0.8,2.4,0.2,2.4-1.4c0-1.5-1.1-3.4-2.4-4.2s-2.4-0.2-2.4,1.4C315.8-46.6,316.9-44.7,318.3-43.9
					L318.3-43.9z M325.7-39.6c1.3,0.8,2.4,0.2,2.4-1.4c0-1.5-1.1-3.4-2.4-4.2s-2.4-0.2-2.4,1.4C323.3-42.3,324.4-40.4,325.7-39.6
					L325.7-39.6z M333.2-35.3c1.3,0.8,2.4,0.2,2.4-1.4c0-1.5-1.1-3.4-2.4-4.2s-2.4-0.2-2.4,1.4C330.7-38,331.8-36.1,333.2-35.3
					L333.2-35.3z"/>
			</g>
			<g>
				<path class="st4" d="M318.3-49.5c1.3,0.8,2.4,2.7,2.4,4.2s-1.1,2.2-2.4,1.4s-2.4-2.6-2.4-4.2C315.8-49.7,316.9-50.3,318.3-49.5z
					"/>
			</g>
			<g class="st0">
				<g>
					<path class="st1" d="M311.8-62.3l3.1-1.8c0.7-0.4,1.7-0.3,2.7,0.3l-3.1,1.8C313.5-62.7,312.5-62.7,311.8-62.3L311.8-62.3z"/>
				</g>
			</g>
			<g class="st0">
				<g>
					<path class="st1" d="M340.8-26.3l3.1-1.8c0,1.2-0.4,2-1.1,2.4l-3.1,1.8C340.3-24.3,340.7-25.1,340.8-26.3L340.8-26.3z"/>
				</g>
			</g>
			<g>
				<polygon class="st1" points="340.8,-42.5 343.9,-44.3 343.8,-28.1 340.8,-26.3 				"/>
			</g>
			<g>
				<polygon class="st6" points="314.5,-62.1 317.6,-63.9 340.1,-50.9 337,-49.1 				"/>
			</g>
			<g class="st0">
				<g>
					<path class="st1" d="M337-49.1l3.1-1.8c2.1,1.2,3.8,4.2,3.8,6.6l-3.1,1.8C340.8-44.9,339.1-47.9,337-49.1L337-49.1z"/>
				</g>
			</g>
		</g>
	</g>
</g>
<g>
	<g>
		<g>
			<path class="st12" d="M-375.7-46.3l-45.7-26.4c-0.8-0.4-1.2-1.6-0.9-2.6l9.2-34.4c0.3-1,1.1-1.4,1.9-1l45.7,26.4
				c0.8,0.4,1.2,1.6,0.9,2.6l-9.2,34.4C-374.1-46.3-374.9-45.9-375.7-46.3z"/>
			<path class="st13" d="M-419.1-76.6l7.9-29.6c0.3-1,1.1-1.4,1.9-1l41.4,23.9c0.8,0.4,1.2,1.6,0.9,2.6l-8,29.6
				c-0.3,1-1.1,1.4-1.9,1L-418.2-74C-419-74.5-419.4-75.6-419.1-76.6z"/>
		</g>
	</g>
	<g>
		<g>
			<path class="st14" d="M-376.8-45.8l-45.7-26.4c-0.8-0.4-1.2-1.6-0.9-2.6l9.2-34.3c0.3-1,1.1-1.4,1.9-1l45.7,26.4
				c0.8,0.4,1.2,1.6,0.9,2.6l-9.2,34.4C-375.2-45.8-376-45.3-376.8-45.8z"/>
			<path class="st15" d="M-420.6-75.9l7.9-29.6c0.3-1,1.1-1.4,1.9-1l41.4,23.9c0.8,0.4,1.2,1.6,0.9,2.6l-7.9,29.6
				c-0.3,1-1.1,1.4-1.9,1l-41.4-23.9C-420.5-73.7-420.9-74.9-420.6-75.9z"/>
		</g>
	</g>
	<rect x="-456.4" y="-52.7" class="st16" width="4.8" height="2.6"/>
	<rect x="-378.4" y="-44.6" class="st17" width="3" height="2.7"/>
	<g>
		<path class="st17" d="M-410.2-23l-45.7-26.3c-0.8-0.4-0.7-1.2,0.2-1.7l31-17.9c0.9-0.5,2.2-0.6,3-0.1l45.7,26.4
			c0.8,0.4,0.7,1.2-0.2,1.7l-31,17.9C-408.1-22.6-409.4-22.5-410.2-23z"/>
	</g>
	<g>
		<path class="st12" d="M-410.2-25.5l-45.7-26.4c-0.8-0.4-0.7-1.2,0.2-1.7l31-17.9c0.9-0.5,2.2-0.6,3-0.1l45.7,26.4
			c0.8,0.4,0.7,1.2-0.2,1.7l-31,17.9C-408.1-25.1-409.4-25.1-410.2-25.5z"/>
		<path class="st17" d="M-440.9-59.7l16.6-9.5c0.7-0.4,1.8-0.5,2.4-0.1l41.9,24.2c0.6,0.4,0.5,1-0.2,1.4l-16.6,9.6
			c-0.7,0.4-1.8,0.5-2.4,0.1L-441-58.3C-441.6-58.6-441.6-59.3-440.9-59.7z"/>
		<path class="st17" d="M-436.8-45l6.4-3.7c0.7-0.4,1.8-0.5,2.5-0.1l12.3,7.1c0.6,0.4,0.6,1-0.2,1.4l-6.4,3.7
			c-0.7,0.4-1.8,0.5-2.5,0.1l-12.3-7.1C-437.6-43.9-437.6-44.5-436.8-45z"/>
		<path class="st14" d="M-425-67.2l2.9,1.7c0.3,0.2,0.8,0.2,1.1,0l1.5-0.8c0.3-0.2,0.3-0.5,0-0.6l-2.9-1.7c-0.3-0.2-0.8-0.2-1.1,0
			l-1.5,0.8C-425.3-67.6-425.3-67.3-425-67.2z M-420.2-64.4l2.9,1.7c0.3,0.2,0.8,0.2,1.1,0l1.5-0.8c0.3-0.2,0.3-0.5,0-0.6l-2.9-1.7
			c-0.3-0.2-0.8-0.2-1.1,0l-1.5,0.8C-420.5-64.8-420.5-64.6-420.2-64.4z M-415.4-61.6l2.9,1.7c0.3,0.2,0.8,0.2,1.1,0l1.5-0.8
			c0.3-0.2,0.3-0.5,0-0.6l-2.9-1.8c-0.3-0.2-0.8-0.2-1.1,0l-1.5,0.8C-415.7-62.1-415.7-61.8-415.4-61.6z M-410.6-58.8l2.9,1.7
			c0.3,0.2,0.8,0.2,1.1,0l1.5-0.8c0.3-0.2,0.3-0.5,0-0.6l-2.9-1.7c-0.3-0.2-0.8-0.2-1.1,0l-1.5,0.8C-410.9-59.3-410.9-59-410.6-58.8
			z M-405.8-56.1l2.9,1.7c0.3,0.2,0.8,0.2,1.1,0l1.5-0.8c0.3-0.2,0.3-0.5,0-0.6l-2.9-1.7c-0.3-0.2-0.8-0.2-1.1,0l-1.5,0.8
			C-406.1-56.5-406.1-56.3-405.8-56.1z M-401-53.3l2.9,1.7c0.3,0.2,0.8,0.2,1.1,0l1.5-0.8c0.3-0.2,0.3-0.5,0-0.6l-2.9-1.7
			c-0.3-0.2-0.8-0.2-1.1,0l-1.5,0.8C-401.3-53.8-401.3-53.5-401-53.3z M-396.2-50.5l2.9,1.7c0.3,0.2,0.8,0.2,1.1,0l1.5-0.8
			c0.3-0.2,0.3-0.5,0-0.6l-2.9-1.7c-0.3-0.2-0.8-0.2-1.1,0l-1.5,0.8C-396.5-51-396.5-50.7-396.2-50.5z M-391.4-47.8l2.9,1.7
			c0.3,0.2,0.8,0.2,1.1,0l1.5-0.8c0.3-0.2,0.3-0.5,0-0.6l-2.9-1.7c-0.3-0.2-0.8-0.2-1.1,0l-1.5,0.8
			C-391.7-48.2-391.7-47.9-391.4-47.8z M-381.2-44.8l-2.9-1.7c-0.3-0.2-0.8-0.2-1.1,0l-1.5,0.8c-0.3,0.2-0.3,0.5,0,0.6l2.9,1.7
			c0.3,0.2,0.8,0.2,1.1,0l1.5-0.8C-380.9-44.4-380.9-44.7-381.2-44.8z M-428.4-65.2l5.1,3c0.3,0.2,0.8,0.2,1.1,0l1.5-0.8
			c0.3-0.2,0.3-0.5,0-0.6l-5.1-3c-0.3-0.2-0.8-0.2-1.1,0l-1.5,0.8C-428.7-65.7-428.7-65.4-428.4-65.2z M-415.9-60.9l-2.9-1.7
			c-0.3-0.2-0.8-0.2-1.1,0l-1.4,0.9c-0.3,0.2-0.3,0.5,0,0.6l2.9,1.7c0.3,0.2,0.8,0.2,1.1,0l1.5-0.8
			C-415.6-60.5-415.6-60.8-415.9-60.9z M-411.1-58.2l-2.9-1.7c-0.3-0.2-0.8-0.2-1.1,0l-1.5,0.8c-0.3,0.2-0.3,0.5,0,0.6l2.9,1.7
			c0.3,0.2,0.8,0.2,1.1,0l1.5-0.8C-410.8-57.7-410.8-58-411.1-58.2z M-406.3-55.4l-2.9-1.7c-0.3-0.2-0.8-0.2-1.1,0l-1.5,0.8
			c-0.3,0.2-0.3,0.5,0,0.6l2.9,1.7c0.3,0.2,0.8,0.2,1.1,0l1.5-0.8C-406-54.9-406-55.2-406.3-55.4z M-401.5-52.6l-2.8-1.7
			c-0.3-0.2-0.8-0.2-1.1,0l-1.5,0.8c-0.3,0.2-0.3,0.5,0,0.6l2.9,1.7c0.3,0.2,0.8,0.2,1.1,0l1.5-0.8
			C-401.2-52.2-401.2-52.4-401.5-52.6z M-399.3-48.4c0.3,0.2,0.8,0.2,1.1,0l1.5-0.8c0.3-0.2,0.3-0.5,0-0.6l-2.9-1.7
			c-0.3-0.2-0.8-0.2-1.1,0l-1.5,0.8c-0.3,0.2-0.3,0.5,0,0.6L-399.3-48.4z M-394.5-45.6c0.3,0.2,0.8,0.2,1.1,0l1.5-0.8
			c0.3-0.2,0.3-0.5,0-0.6l-2.9-1.7c-0.3-0.2-0.8-0.2-1.1,0l-1.4,0.8c-0.3,0.2-0.3,0.5,0,0.6L-394.5-45.6z M-384.6-42.9l-5.3-3
			c-0.3-0.2-0.8-0.2-1.1,0l-1.4,0.8c-0.3,0.2-0.3,0.5,0,0.6l5.3,3c0.3,0.2,0.8,0.2,1.1,0l1.5-0.8C-384.3-42.4-384.3-42.7-384.6-42.9
			z M-435.2-61.3l5.1,3c0.3,0.2,0.8,0.2,1.1,0l1.5-0.8c0.3-0.2,0.3-0.5,0-0.6l-5.1-3c-0.3-0.2-0.8-0.2-1.1,0l-1.5,0.8
			C-435.5-61.7-435.5-61.4-435.2-61.3z M-428.1-57.2l2.9,1.7c0.3,0.2,0.8,0.2,1.1,0l1.5-0.8c0.3-0.2,0.3-0.5,0-0.6l-2.9-1.7
			c-0.3-0.2-0.8-0.2-1.1,0l-1.5,0.8C-428.4-57.6-428.4-57.4-428.1-57.2z M-423.3-54.4l2.9,1.7c0.3,0.2,0.8,0.2,1.1,0l1.5-0.8
			c0.3-0.2,0.3-0.5,0-0.6l-2.9-1.7c-0.3-0.2-0.8-0.2-1.1,0l-1.5,0.7C-423.6-54.9-423.6-54.6-423.3-54.4z M-418.5-51.6l2.9,1.7
			c0.3,0.2,0.8,0.2,1.1,0l1.5-0.8c0.3-0.2,0.3-0.5,0-0.6l-2.9-1.8c-0.3-0.2-0.8-0.2-1.1,0l-1.5,0.8
			C-418.8-52.1-418.8-51.8-418.5-51.6z M-413.7-48.9l2.9,1.7c0.3,0.2,0.8,0.2,1.1,0l1.4-0.9c0.3-0.2,0.3-0.5,0-0.6l-2.9-1.7
			c-0.3-0.2-0.8-0.2-1.1,0l-1.5,0.8C-414-49.3-414-49-413.7-48.9z M-408.9-46.1l2.9,1.7c0.3,0.2,0.8,0.2,1.1,0l1.5-0.8
			c0.3-0.2,0.3-0.5,0-0.6l-2.9-1.8c-0.3-0.2-0.8-0.2-1.1,0l-1.5,0.8C-409.2-46.6-409.2-46.3-408.9-46.1z M-404.1-43.3l2.9,1.7
			c0.3,0.2,0.8,0.2,1.1,0l1.5-0.8c0.3-0.2,0.3-0.5,0-0.6l-2.9-1.7c-0.3-0.2-0.8-0.2-1.1,0l-1.5,0.8
			C-404.4-43.8-404.4-43.5-404.1-43.3z M-391.4-38.9l-5.3-3c-0.3-0.2-0.8-0.2-1.1,0l-1.4,0.8c-0.3,0.2-0.3,0.5,0,0.6l5.3,3
			c0.3,0.2,0.8,0.2,1.1,0l1.5-0.8C-391.1-38.5-391.1-38.8-391.4-38.9z M-431.8-63.2l2.9,1.7c0.3,0.2,0.8,0.2,1.1,0l1.5-0.8
			c0.3-0.2,0.3-0.5,0-0.6l-2.9-1.7c-0.3-0.2-0.8-0.2-1.1,0l-1.5,0.8C-432.1-63.7-432.1-63.4-431.8-63.2z M-424.4-61.9
			c-0.3-0.2-0.8-0.2-1.1,0l-1.5,0.8c-0.3,0.2-0.3,0.5,0,0.6l2.9,1.7c0.3,0.2,0.8,0.2,1.1,0l1.5-0.8c0.3-0.2,0.3-0.5,0-0.6
			L-424.4-61.9z M-416.8-57.5l-2.9-1.7c-0.3-0.2-0.8-0.2-1.1,0l-1.5,0.8c-0.3,0.2-0.3,0.5,0,0.6l2.9,1.7c0.3,0.2,0.8,0.2,1.1,0
			l1.5-0.8C-416.4-57.1-416.4-57.3-416.8-57.5z M-417.4-54.9l2.9,1.7c0.3,0.2,0.8,0.2,1.1,0l1.5-0.8c0.3-0.2,0.3-0.5,0-0.6l-2.9-1.7
			c-0.3-0.2-0.8-0.2-1.1,0l-1.5,0.8C-417.7-55.4-417.7-55.1-417.4-54.9z M-412.6-52.1l2.9,1.7c0.3,0.2,0.8,0.2,1.1,0l1.5-0.8
			c0.3-0.2,0.3-0.5,0-0.6l-2.9-1.7c-0.3-0.2-0.8-0.2-1.1,0l-1.5,0.8C-412.9-52.6-412.9-52.3-412.6-52.1z M-407.8-49.4l2.9,1.7
			c0.3,0.2,0.8,0.2,1.1,0l1.5-0.8c0.3-0.2,0.3-0.5,0-0.6l-2.9-1.7c-0.3-0.2-0.8-0.2-1.1,0l-1.5,0.8
			C-408.1-49.8-408.1-49.6-407.8-49.4z M-397.6-46.4l-2.8-1.7c-0.3-0.2-0.8-0.2-1.1,0l-1.5,0.8c-0.3,0.2-0.3,0.5,0,0.6l2.9,1.7
			c0.3,0.2,0.8,0.2,1.1,0l1.5-0.8C-397.3-46-397.3-46.3-397.6-46.4z M-388-40.9l-7.6-4.4c-0.3-0.2-0.8-0.2-1.1,0l-1.5,0.8
			c-0.3,0.2-0.3,0.5,0,0.6l7.6,4.4c0.3,0.2,0.8,0.2,1.1,0l1.5-0.8C-387.7-40.4-387.7-40.7-388-40.9z M-433.1-59.1l-2.9-1.7
			c-0.3-0.2-0.8-0.2-1.1,0l-1.5,0.8c-0.3,0.2-0.3,0.5,0,0.6l2.9,1.7c0.3,0.2,0.8,0.2,1.1,0l1.5-0.8C-432.8-58.7-432.8-59-433.1-59.1
			z M-428.3-56.4l-2.9-1.7c-0.3-0.2-0.8-0.2-1.1,0l-1.5,0.8c-0.3,0.2-0.3,0.5,0,0.6l2.9,1.7c0.3,0.2,0.8,0.2,1.1,0l1.5-0.8
			C-428-55.9-428-56.2-428.3-56.4z M-409.2-45.3l-17.3-10c-0.3-0.2-0.8-0.2-1.1,0l-1.5,0.8c-0.3,0.2-0.3,0.5,0,0.6l17.3,10
			c0.3,0.2,0.8,0.2,1.1,0l1.5-0.8C-408.8-44.8-408.8-45.1-409.2-45.3z M-404.4-42.5l-2.9-1.7c-0.3-0.2-0.8-0.2-1.1,0l-1.5,0.8
			c-0.3,0.2-0.3,0.5,0,0.6l2.9,1.7c0.3,0.2,0.8,0.2,1.1,0l1.5-0.8C-404.1-42.1-404.1-42.3-404.4-42.5z M-399.6-39.8l-2.9-1.7
			c-0.3-0.2-0.8-0.2-1.1,0l-1.5,0.8c-0.3,0.2-0.3,0.5,0,0.6l2.9,1.7c0.3,0.2,0.8,0.2,1.1,0l1.5-0.8
			C-399.3-39.3-399.3-39.6-399.6-39.8z M-394.8-37l-2.9-1.7c-0.3-0.2-0.8-0.2-1.1,0l-1.5,0.8c-0.3,0.2-0.3,0.5,0,0.6l2.9,1.7
			c0.3,0.2,0.8,0.2,1.1,0l1.5-0.8C-394.5-36.5-394.5-36.8-394.8-37z"/>
	</g>
	<g>
		<path class="st14" d="M-385.6-36.5v-0.6c0-0.1,0.1-0.3,0.2-0.3l2.9-1.7c0.1-0.1,0.2,0,0.2,0.1v0.5c0,0.1-0.1,0.3-0.2,0.3l-2.9,1.7
			C-385.5-36.4-385.6-36.4-385.6-36.5z"/>
		<path class="st14" d="M-389.8-34.1v-0.5c0-0.1,0.1-0.3,0.2-0.3l2.9-1.7c0.1-0.1,0.2,0,0.2,0.1v0.5c0,0.1-0.1,0.3-0.2,0.3l-2.9,1.7
			C-389.8-33.9-389.8-34-389.8-34.1z"/>
	</g>
</g>
<g>
	<g>
		<path class="st18" d="M-417.1-81.4l-7.7-1.7h-0.1c-0.5-0.1-1.3,0-2.2,0.6c0,0-2.2,1-3.5,1c-1.3,0-0.3,1.1,1,0.9
			c1.3-0.2,1.6-0.3,1.6-0.3s-2.4,0.9-4.6,1.3c-1.8,0.7-3.6,2.6-0.6,2.5c0,0,1.2,0,2.2,0s4.2-0.4,4.2-0.4s3.6-1.4,4.4-2
			c3.9,1.7,7.5,2.9,8.6,1.5C-412.5-79.6-417.1-81.4-417.1-81.4z"/>
		<path class="st19" d="M-404.7-101.6c-2.8-0.2-4.8,2.3-5.7,3.8s-6.3,14.7-6.8,16.2s-1.4,3.7,0.7,4.6s3-0.1,4.1-1.1
			c1.1-1,10.7-16.8,10.7-16.8L-404.7-101.6z"/>
		<path class="st19" d="M-421.8-82.5c0,0,1.8,0.9-0.1,3.6c0,0,5.8,2.4,7.3,2.1c1.6-0.2,3.2-2.4,2.7-3.4s-6.4-2.5-7.3-2.1
			L-421.8-82.5z"/>
		<path class="st20" d="M-392.6-101.9c5.8,2.5,10.1,5.8,10.8,7.5c0.7,1.7-2.8,13.2-3.2,18.5c-0.4,5.3-7.2,12.1-12.2,11.1
			c-5-1.1-7.6-5-8-7.3c-0.4-2.3-1-6.3-1-6.3s-1.7-1.4-2.4-3.9c-0.7-2.3,1.7-8.2,1.6-10.1c-0.2-4.1-0.4-8.6,2.2-9.4
			c2.6-0.9,8.4,0.1,8.4,0.1L-392.6-101.9z"/>
		<path class="st18" d="M-382-68.1c-1.5-0.8-4.5-0.4-4.5-0.4s-9.2,3.2-10.5,3.3c-1.1,0.1-1.5,0.1-1.6,0.1c0-0.3-0.1-0.6-0.2-0.8
			c-0.3-0.5-1.1-0.7-1.1-0.7s-1.8,0.1-2.4,0.7c-0.4,0.4-0.5,0.9-0.6,1.2c-1.4,0.6-3.2,1.4-3.2,1.4l-1.9,0.2c0,0-3.2-0.2-3.9-0.1
			s-0.5,0.6-0.4,0.8c0.1,0.2,1.8,0.6,1.8,0.6s5.4,1.1,6.5,1.1c1.2,0,5-1.6,5-1.6s16.4-0.8,17.8-1.6C-379.8-64.7-382-68.1-382-68.1z"
			/>
		<path class="st21" d="M-384.8-96.7c-2.9,0.6-2.7,3.8-3.2,7.5c-0.5,3.7,2.1,22.7,2.1,22.7s7.2,3.3,7.2-0.3c0-1.4-0.9-22.3-2.2-26
			C-382.2-96.6-384.8-96.7-384.8-96.7z"/>
		<path class="st21" d="M-378.7-66.8c0,0,0.3,3.2-3.2,3.7s-12.2,1.7-12.9,1.2l-3.3-0.2c0,0,1.4-0.3,0.2-3c0,0,10.8-3.7,12.6-4.2
			C-383.6-69.9-379.4-70.1-378.7-66.8z"/>
		<g>
			<path class="st19" d="M-391.6-102c-0.2-0.2-1.5-0.9-1.5-0.9l-0.9,2l2.3,1.8l0.5-1.7L-391.6-102z"/>
			<path class="st22" d="M-401.3-105.9c2.5,4.6,0.9,7.5,1.1,9.3c0.3,1.8,2.7,1.6,5.2,0.2s3.3-3.3,3.3-4.3c0-1.9-2.3-3.1-2-7.4
				c0.2-4.3,0.7-6.9,0.7-6.9l-8.5,4.7L-401.3-105.9z"/>
			<path class="st21" d="M-391.6-102l2.1,1.6c0,0,1.1,2-2.2,5.3c-2.4,2.5-5.1,3.9-5.1,3.9l-1.9-3.9
				C-398.6-95.3-391.7-96.8-391.6-102z"/>
			<path class="st21" d="M-399-95.3l-1.8,2.7c0,0-0.3-1.5,0-5.2c0.3-3.7,3-4.6,3-4.6l3-0.1C-394.9-102.4-400.8-100.8-399-95.3z"/>
			<g>
				<g>
					<path class="st23" d="M-402.4-117.9c-0.1,0-0.1-0.1-0.2-0.1l0,0l-1.5-0.5c-0.9-0.5-2.2,0.3-3.1,1.8c-0.8,1.3-0.8,2.8-0.2,3.4
						l0,0l1.3,1.1l0,0c0.1,0.1,0.1,0.1,0.2,0.2c0.9,0.5,2.5-0.3,3.4-2C-401.4-115.6-401.4-117.3-402.4-117.9z"/>
					<path class="st24" d="M-405.4-115.5c-1.1,2-1.1,4.1,0,4.7c1.1,0.7,3-0.4,4.1-2.4c1.1-2,1.1-4.1,0-4.7
						C-402.4-118.6-404.3-117.5-405.4-115.5z"/>
					<path class="st24" d="M-401.6-118c1,0.3,1.6,0.9,1.6,0.9s-2.9,7.3-3.9,7.1c-0.9-0.1-1.7-0.9-1.7-0.9s-0.3-2.7,0.7-4.1
						S-401.6-118-401.6-118z"/>
					<path class="st25" d="M-404.4-115c-1.1,2-1.1,4.1,0,4.7c1.1,0.7,3-0.4,4.1-2.4c1.1-2,1.1-4.1,0-4.7
						C-401.4-118-403.3-116.9-404.4-115z"/>
				</g>
				<g>
					<g>
						<path class="st26" d="M-404.1-118.7l1.8-1c0,0-0.3,1.1-0.5,3c-0.3,0.1-1.1,0.5-1.8,1C-404.4-117.6-404.1-118.7-404.1-118.7z"
							/>
					</g>
					<g>
						<path class="st26" d="M-402.6-120.9l1.8-1c-0.7,0.4-1.2,1.2-1.5,2.2l-1.8,1C-403.8-119.7-403.3-120.5-402.6-120.9z"/>
					</g>
					<g>
						<path class="st27" d="M-400.1-122.4c-0.9-0.3-1.8-0.3-2.6-0.1c-1.2,0.4-2.1,1.4-2.5,2.9c0,0.1-0.3,1.1-0.5,2.8
							c0,0.1-0.1,0.1,0,0.1c0.5,0.2,1.1,0.9,1.1,0.9c0.1-1.9,0.4-3,0.5-3c0.5-2,2.1-2.9,4-2.5C-400-121.6-400-122-400.1-122.4z"/>
					</g>
				</g>
			</g>
			<circle class="st28" cx="-390.4" cy="-121.4" r="3.3"/>
			<path class="st18" d="M-404.2-118.2c-1.5,1.1-1.4,6.1-1.4,6.1l0.9,5.2c0,0,1.9,8.9,4.7,7.5c3.1-1.6,6.6-5.3,6.6-5.3l1-9
				c0,0-3-4.9-6.4-5.2C-402.2-119.1-404.2-118.2-404.2-118.2z"/>
			<path class="st29" d="M-401.3-114.2c3.6,0,8,6.5,8.4,6.2c0.2,0.7,0.1-2,0.7-2.4c0.6-0.4,1.2,0.3,1,1.5c-0.1,1.2-0.7,2.8-0.7,2.8
				l0.2,1.2c0,0,1.7-2.1,2.2-3.8c0.5-1.7,1.3-4.2,1-7.7c-0.1-1.3-1.5-3.9-3.1-4.4c-2.7-1.8-5.7-1.5-8.2-0.6
				c-2.5,0.9-4.2,2.3-4.9,3.7c-0.6,1.4-1.2,3.2-0.9,3.4C-404.3-114.4-402.9-113.5-401.3-114.2z"/>
			<path class="st30" d="M-392.4-109.8c0.3-1.3,0.5-1.8,1.7-1.7c1.2,0.1,0.7,1.5,0.1,3c-0.7,1.4-0.9,2.4-1.6,2.3
				C-392.9-106.3-392.4-109.8-392.4-109.8z"/>
			<g>
				<g>
					<path class="st24" d="M-394-108.9c-1.1,2-1.1,4.1,0,4.7c1.1,0.7,3-0.4,4.1-2.4s1.1-4.1,0-4.7C-391-112-392.9-110.9-394-108.9z"
						/>
					<path class="st24" d="M-390.2-111.5c1,0.3,1.6,0.9,1.6,0.9s-2.9,7.3-3.9,7.1c-0.9-0.1-1.7-0.9-1.7-0.9s-0.3-2.7,0.7-4.1
						C-392.5-109.8-390.2-111.5-390.2-111.5z"/>
					<path class="st25" d="M-393-108.4c-1.1,2-1.1,4.1,0,4.7c1.1,0.7,3-0.4,4.1-2.4s1.1-4.1,0-4.7C-390-111.4-391.9-110.3-393-108.4
						z"/>
					<path class="st23" d="M-387.7-108.8l-1.3-1.1l0,0c-0.1-0.1-0.2-0.2-0.3-0.2c-0.9-0.5-2.5,0.3-3.4,2c-0.9,1.6-0.9,3.4,0,3.9
						c0.1,0,0.1,0.1,0.2,0.1l0,0l1.5,0.5l0.9-1.4c0.3-0.3,0.6-0.7,0.9-1.2c0.2-0.3,0.3-0.6,0.4-0.9L-387.7-108.8z"/>
					<path class="st31" d="M-391-107.2c-0.9,1.5-0.9,3,0,3.5s2.2-0.3,3.1-1.8s0.9-3,0-3.5S-390.2-108.7-391-107.2z"/>
				</g>
				<path class="st23" d="M-392.6-105.5c0,0-4.4,5-8.9,4.6c0,0-0.7,0.3,0,0.7c0.7,0.4,3.1,0,5.9-1.9c2.8-1.8,4-3.3,4-3.3
					S-392.1-105.9-392.6-105.5z"/>
				<ellipse class="st24" cx="-402.3" cy="-100.5" rx="1.6" ry="1.2"/>
				<g>
					<g>
						<g>
							<g class="st0">
								
									<linearGradient id="SVGID_1_" gradientUnits="userSpaceOnUse" x1="-11378.6875" y1="243.17" x2="-11380.1592" y2="245.72" gradientTransform="matrix(1 0 0 -1 10979.4629 122)">
									<stop  offset="0.2907" style="stop-color:#EEEBFC"/>
									<stop  offset="1" style="stop-color:#EAE8FA"/>
								</linearGradient>
								<path class="st32" d="M-400.9-123.5c-0.3,0.1-0.5,0.2-0.7,0.3l-1.8,1c0.2-0.1,0.5-0.2,0.7-0.3c1.2-0.4,2.8-0.1,4.3,0.8
									l1.8-1C-398.1-123.6-399.6-123.9-400.9-123.5z"/>
								<g>
									<polygon class="st33" points="-398.3,-121.7 -396.6,-122.7 -395.6,-122.1 -397.3,-121.1 									"/>
								</g>
								<g>
									
										<linearGradient id="SVGID_00000072967798313350107150000012525189865534496933_" gradientUnits="userSpaceOnUse" x1="-11368.0371" y1="231.1712" x2="-11375.4033" y2="243.9297" gradientTransform="matrix(1 0 0 -1 10979.4629 122)">
										<stop  offset="0" style="stop-color:#EAE8FA"/>
										<stop  offset="0.7093" style="stop-color:#EEEBFC"/>
									</linearGradient>
									<path style="fill:url(#SVGID_00000072967798313350107150000012525189865534496933_);" d="M-397.3-121.1l1.8-1
										c0.9,0.5,1.7,1.2,2.5,2c1.1,1.2,2.1,2.6,2.9,4.2c0.7,1.6,1.2,3.2,1.3,4.7c0.1,1,0.2,2.4,0.2,2.1l-1.8,1
										c0,0.3-0.1-1.1-0.2-2.1c-0.1-1.5-0.6-3.1-1.3-4.7c-0.7-1.6-1.7-3-2.9-4.2C-395.6-119.9-396.5-120.6-397.3-121.1z"/>
								</g>
								<g>
									<path class="st27" d="M-390.6-110.2c-0.1-1.5-0.6-3.1-1.3-4.7c-0.7-1.6-1.7-3-2.9-4.2c-0.8-0.8-1.6-1.5-2.5-2l-1-0.6
										c-1.5-0.9-3.1-1.2-4.3-0.8c-0.9,0.3-1.5,0.8-2,1.6c1.5-1.3,1.9-0.4,2.8-0.5c0.9-0.1,2.3,0.2,3.5,0.9l1,0.6
										c0.7,0.4,1.4,1,2.1,1.7c2,2,3.3,4.9,3.5,7.5c0,0.3,0.1,0.8,0.1,1.3c0.1,0.9,1.1,1.3,1.1,1.3
										C-390.5-109.2-390.5-109.2-390.6-110.2z"/>
								</g>
							</g>
						</g>
					</g>
				</g>
			</g>
		</g>
	</g>
</g>
<g>
	<path class="st18" d="M-418.5-57.3c0.3,0,1.3,1.5,0,1.5s-2.6-0.3-2.6-0.3l-3-1.2c0,0-1.2,1.4-2.4,1.6c-1.3,0.2-4.6,0.5-4.6,0.5
		s-1.3-1.9-2.6-3c-1.3-1.1,7.4-6.5,8.4-6.7s4.5,0.9,5.4,1.4s1.6,2.2,1.6,2.2l0.1,3.1L-418.5-57.3z"/>
	<path class="st35" d="M-448-57.3c0,0,14.3-4.5,15.8-4.7s4.2,1.6,4.5,4.6c0.3,3-2.4,4.1-2.4,4.1s-11.4,4.9-15.2,5.5
		c-3.8,0.7-5.2-2.1-6.3-4.3C-452.7-54.2-448-57.3-448-57.3z"/>
	<path class="st36" d="M-445.9-21.5c-0.4,3.5-1.7,6.2-9.5,8.2c-7.8,1.9-20.9-4.7-22.3-10.8c-0.5-2.3,1.2-5.9,1.2-9.9
		c-0.1-4-2-13.4-3.1-21.6c-1.2-8.2,0.2-13.7,4.7-14.8c4.4-1.1,15.3,2.2,15.3,2.2s14.6,6,17.6,9.8s-0.4,18.1-2.3,26.8
		C-445.3-27.1-445.9-21.5-445.9-21.5z"/>
	<path class="st18" d="M-409.3-47.8c0,0,1.4-2.6,1.9-3c0.5-0.5,3.5-1.9,4.6-2.1c1.2-0.2,2,0.8,2,0.8l2.8,1.6c0,0,3.1,1.6,4.6,2.4
		c1.5,0.7,1.9,1.8,1.7,2.4c-0.2,0.6-2.1,0.2-2.1,0.2l-2.9-0.3c0,0-2.3,0.7-4.7,1s-2.4,0.2-2.4,0.2l-1.5,1.7L-409.3-47.8z"/>
	<g>
		<path class="st18" d="M-465.4-82.3c1.4,5.1,0.6,8.8-2.1,12.5c-0.3,1.5,2.5,2.8,7.1,4.1s8.2,2,8.6,1.2c0.4-0.8,0.8-6.7,0.8-6.7
			s2.9,0.1,4.3-0.5c1.4-0.6,3.5-5.3,4-6.5c0.5-1.2,2.2-14.8,0.8-17.1c-1.4-2.2-9-0.8-9-0.8L-465.4-82.3z"/>
		<path class="st22" d="M-454.5-64.3c1.5,0.2,2.5,0.2,2.7-0.2c0.4-0.8,0.8-6.7,0.8-6.7s2.9,0.1,4.3-0.5c0,0-3.7-0.5-6.3-4.2
			C-453.2-76.1-454.6-70.7-454.5-64.3z"/>
		<path class="st37" d="M-446.9-84.5c-3-0.3-3.4,5.6-4.8,8.2c-1.4,2.6-5.3,4.5-5.3,4.5s-5,0.2-7.6-2.4c-0.7-2.3-1.2-3.6-1.2-3.6
			s-1.7-3.2-2.7-6.9c-0.9-3.7-1.2-9.4,1.2-13.4s7.5-5.1,7.5-5.1s4-2,11.4,0.5s8.3,7.8,8.3,9.6c-0.1,1.8-2,4.3-2,4.3l-1,4.1l-1.2,3.9
			h-1.2C-445.4-80.8-445.6-83.9-446.9-84.5z"/>
		<path class="st18" d="M-447.6-86.2c-2.2,0-2,2.4-2.1,4.1c-0.1,1.6,0,3,0.5,4s2.7-1,3.1-2.6c0.4-1.6,0.3-4.1,0.1-4.4
			C-446.5-86.2-447.6-86.2-447.6-86.2z"/>
	</g>
	<path class="st38" d="M-451.1-54.4c-3.7,4.7-0.1,10,3.1,12.7c3.2,2.7,21.8,9.9,25.9,9.1s-0.9-7.5-1.8-9.3
		c-0.8-1.9-14.6-12.2-19.5-14.3S-451.1-54.4-451.1-54.4z"/>
	<path class="st38" d="M-424.5-42c0,0,13-7.5,14.4-8.1s4.4,0.7,5.4,3.5s-1.4,4.5-1.4,4.5s-10.1,7.3-13.7,8.8
		c-3.5,1.5-5.5-0.9-7.1-2.8C-428.4-37.9-424.5-42-424.5-42z"/>
</g>
<g>
	<g>
		<path class="st39" d="M-395.2-81.8c1.8,0.9,3.3,3.2,3.3,4.9c0,1.8-1.5,2.5-3.3,1.6c-1.8-0.9-3.3-3.1-3.3-4.9
			C-398.5-81.9-397.1-82.7-395.2-81.8z"/>
		<path class="st40" d="M-395.2-80.7c1.2,0.7,2.2,2.1,2.2,3.3c0,1.2-1,1.7-2.2,1.1c-1.1-0.6-2.1-2.1-2.1-3.3
			C-397.3-80.8-396.5-81.3-395.2-80.7z"/>
		<polygon class="st41" points="-396.5,-79.5 -395.7,-79 -395.7,-77.2 -395.2,-77 -394.8,-76.7 -394.8,-78.5 -393.9,-78.1 
			-393.9,-78.9 -395.2,-79.6 -395.2,-79.6 -396.5,-80.3 		"/>
	</g>
	<polygon class="st42" points="-399.1,-84.4 -391.3,-80.4 -391.3,-72.5 -399.1,-76.5 	"/>
</g>
<g id="_x31_1_1_">
	<path class="st43" d="M112.2,82.7L77.6,53.5L49.2,69.9L30.4,59.1c-0.2-0.1-0.7-0.1-0.9,0L0.9,75.6l19.3,11.1l-17.3,10l31.6,18.2h22
		l-1.6-16.3l27.4-15.8H112.2z"/>
	<g>
		<g>
			<g class="st0">
				<path class="st44" d="M19,39.7l0.6,0.1l2.2,8.6c0.1,0.5,0.5,1,0.9,1.2l4.9,2.8l0,0.8l-1.3,0.8l0-0.8l-4.9-2.8
					c-0.4-0.2-0.8-0.7-0.9-1.2l-2.2-8.6l-0.6-0.1L19,39.7z"/>
				<path class="st45" d="M18.3,40.6l2.2,8.6c0.1,0.5,0.5,1,0.9,1.2l4.9,2.8l0,0.8l-4.9-2.8c-0.7-0.4-1.3-1.3-1.5-2.1l-2.2-8.6
					L18.3,40.6z"/>
			</g>
			<g>
				<g class="st0">
					<path class="st46" d="M40.6,42.9c0.2-0.6,0.5-1.1,0.9-1.3l1-0.6c-0.4,0.3-0.8,0.7-0.9,1.3l-4.7,17.1l-1,0.6L40.6,42.9z"/>
					<polygon class="st47" points="61.2,53.4 65.9,76.2 64.9,76.8 59.9,53.6 					"/>
					<path class="st44" d="M41.9,40c0.8-0.5,2-0.4,3.2,0.3L56.9,47c2,1.2,3.8,3.8,4.3,6.3l-1.3,0.8c-0.5-2.6-2-5.3-4-6.5l-11.8-6.8
						c-1.2-0.7-2.4-0.8-3.2-0.3L41.9,40z"/>
					<path class="st45" d="M39.8,42.2c0.5-1.9,2.3-2.5,4.4-1.3l11.8,6.8c2,1.2,3.8,3.8,4.3,6.3l4.7,22.8l-0.8-0.5l-4.6-22.5
						c-0.4-2.1-1.9-4.2-3.6-5.2l-11.8-6.8c-1.7-1-3.1-0.5-3.6,1.1L35.8,60L35,59.5L39.8,42.2z"/>
				</g>
				<g class="st0">
					<path class="st44" d="M35,30.5l0.6,0.1l2.2,8.6c0.1,0.5,0.5,1,0.9,1.2l4.9,2.8l0,0.8l-1.3,0.8l0-0.8l-4.9-2.8
						c-0.4-0.2-0.8-0.7-0.9-1.2l-2.2-8.6l-0.6-0.1L35,30.5z"/>
					<path class="st45" d="M34.3,31.4l2.2,8.6c0.1,0.5,0.5,1,0.9,1.2l4.9,2.8l0,0.8L37.3,42c-0.7-0.4-1.3-1.3-1.5-2.1l-2.2-8.6
						L34.3,31.4z"/>
				</g>
				<g>
					<path class="st48" d="M42.6,40.6c0.1,0,0.2,0,0.3,0l16.7,9.7c0.9,0.5,1.8,1.4,2.4,2.6l0.3,0.5c0.1,0.2,0.1,0.5,0,0.6L40.6,66.6
						c0.1-0.1,0.1-0.3,0-0.6l-0.3-0.5c-0.7-1.1-1.5-2-2.4-2.6l-16.7-9.7c-0.1-0.1-0.2-0.1-0.3,0L42.6,40.6z"/>
					<path class="st45" d="M21.1,53.3L37.8,63c0.9,0.5,1.8,1.4,2.4,2.6l0.3,0.5c0.1,0.2,0.1,0.5,0,0.6c-0.1,0-0.2,0-0.3,0
						c-0.1-0.1-0.2-0.1-0.3-0.3l-0.3-0.5c-0.5-0.9-1.2-1.6-1.9-2l-16.7-9.7c-0.2-0.1-0.4-0.4-0.4-0.6C20.7,53.3,20.9,53.2,21.1,53.3
						z"/>
				</g>
				<g class="st0">
					<path class="st46" d="M17.6,56.1c0.2-0.6,0.5-1.1,0.9-1.3l1-0.6c-0.4,0.3-0.8,0.7-0.9,1.3l-4.7,17.1l-1,0.6L17.6,56.1z"/>
					<polygon class="st47" points="38.3,66.6 43,89.4 41.9,90 37,66.9 					"/>
					<path class="st44" d="M19,53.2c0.8-0.5,2-0.4,3.2,0.3l11.8,6.8c2,1.2,3.8,3.8,4.3,6.3L37,67.4c-0.5-2.6-2-5.3-4-6.5l-11.8-6.8
						c-1.2-0.7-2.4-0.8-3.2-0.3L19,53.2z"/>
					<path class="st45" d="M16.8,55.4c0.5-1.9,2.3-2.5,4.4-1.3l11.8,6.8c2,1.2,3.8,3.8,4.3,6.3L41.9,90l-0.8-0.5L36.5,67
						c-0.4-2.1-1.9-4.2-3.6-5.2L21.2,55c-1.7-1-3.1-0.5-3.6,1.1l-4.7,17.1l-0.8-0.5L16.8,55.4z"/>
				</g>
			</g>
			<path class="st47" d="M16,26.2c2.6-1.5,9.6-5.6,16.9-9.8c1-0.5,1.6-0.4,2-0.3l0.8,0.3L19,48l-0.2-0.1c-0.2-0.1-1-0.4-1.2-0.5
				c-0.6-0.4-0.9-1-1.1-1.9c-0.1-0.5-2.5-14.5-2.5-14.5C13.7,29,14.5,27.2,16,26.2z"/>
			<path class="st48" d="M17,26.5l16.9-9.8c0.6-0.4,1.2-0.4,1.8-0.3c1.2,0.4,1.5,1.4,1.7,2.2c0.3,1.5,2.3,13,2.5,14.5
				c0,0.2,0,0.2,0,0c0.3,1.9-0.5,3.8-2.1,4.7c-3.1,1.8-13.5,7.8-16.9,9.8c-1,0.5-1.6,0.4-1.9,0.3c-0.7-0.2-1.3-1-1.5-2.1l-2.5-14.5
				C14.6,29.6,15.5,27.4,17,26.5z"/>
		</g>
		<g>
			<g>
				<path class="st49" d="M60.2,78.2c-0.1-0.2-0.2-0.4-0.3-0.6c-0.3-0.4-0.7-0.6-1.1-0.8c-0.8-0.4-1.5-0.7-2.3-1.1
					c-0.3-0.2-0.7-0.3-0.9-0.6c-0.2-0.3-0.3-0.7-0.1-1l-3.3-1.6c-0.6,0.6-1.2,1.2-1.6,2c-0.3,0.8-0.4,1.8,0.2,2.4
					c0.5,0.6,1.4,0.7,2.2,1c1.3,0.5,2.2,1.6,3.2,2.6c1,0.9,2.2,1.8,3.6,1.7c0.2,0,0.5-0.1,0.6-0.2c0.1-0.1,0.2-0.3,0.2-0.4
					C60.8,80.4,60.6,79.3,60.2,78.2z"/>
				<path class="st49" d="M52,85.4c-1-1.3-2-2.7-2.8-4.1c-0.4-0.6-0.7-1.3-0.8-2l-3.6-1.7c-0.4,0.6-0.8,1.1-1.2,1.7
					c-0.3,0.5-0.7,0.2-0.7,0.8c0,0,0,0.9,0,0.9c0,0.5,0.2,0.9,0.4,1.4c0.4,0.9,0.9,1.7,1.5,2.5c0.9,1.3,2.1,2.5,3.6,2.8
					c0.9,0.2,3.9-0.7,4-1.1c0-0.1,0.1-0.2,0.1-0.2c0,0,0-0.9,0-0.9C52.4,85.1,52.2,85.6,52,85.4z"/>
				<path class="st50" d="M60.2,77.3c-0.1-0.2-0.2-0.4-0.3-0.6c-0.3-0.4-0.7-0.6-1.1-0.8c-0.8-0.4-1.5-0.7-2.3-1.1
					c-0.3-0.2-0.7-0.3-0.9-0.6c-0.2-0.3-0.3-0.7-0.1-1l-3.3-1.6c-0.6,0.6-1.2,1.2-1.6,2c-0.3,0.8-0.4,1.8,0.2,2.4
					c0.5,0.6,1.4,0.7,2.2,1c1.3,0.5,2.2,1.6,3.2,2.6c1,0.9,2.2,1.8,3.6,1.7c0.2,0,0.5-0.1,0.6-0.2c0.1-0.1,0.2-0.3,0.2-0.4
					C60.8,79.5,60.6,78.4,60.2,77.3z"/>
				<path class="st50" d="M52,84.5c-1-1.3-2-2.7-2.8-4.1c-0.4-0.6-0.7-1.3-0.8-2l-3.6-1.7c-0.4,0.6-0.8,1.1-1.2,1.7
					c-0.4,0.5-0.7,1.1-0.8,1.7c0,0.5,0.2,0.9,0.4,1.4c0.4,0.9,0.9,1.7,1.5,2.5c0.9,1.3,2.1,2.5,3.6,2.8c0.9,0.2,3.9-0.7,4-1.1
					C52.6,85.2,52.3,84.8,52,84.5z"/>
				<g>
					<path class="st51" d="M59.6,51.7c-5.1-7.5-11.3-12.8-11.3-12.8c-3.5,1.2-6.1,3.7-6.4,9.6l15.5,11.9c0,0-1.9,1.1-2.8,3.4
						c-1.3,3.5-1.4,4.6-2.9,7.4c0,0-0.8,1.3,1.5,2.4c1.9,0.9,2.5-0.3,2.5-0.3s5.3-6.5,7.5-8.8C65.9,61.9,64.7,59.2,59.6,51.7z"/>
					<path class="st51" d="M34.1,54.2c4.4,5.2,10.6,7.6,13.3,10.8c-2.1,1.3-2.5,4-2.6,6.5c0,2.4-0.2,4.2-0.5,5.5
						c-0.2,1.5,4.7,2.7,4.6,0.6c0.3-5.1,7.3-11.5,5.3-16.1c-0.8-1.8-9.9-9.9-10.1-16c0-0.9,0-1.9-0.4-2.7c-0.6-1.2-2-1.7-3.3-2
						c-2.5-0.5-8.1-0.4-9.2,2.5C30,46.7,31.7,51.3,34.1,54.2z"/>
				</g>
			</g>
		</g>
	</g>
	<g>
		<g>
			<g id="Axonometric_Cube_9_">
				<polygon id="Cube_face_-_left_21_" class="st52" points="112.2,82.7 83.1,65.9 83.1,40.4 112.2,57.2 				"/>
				<polygon id="Cube_face_-_right_5_" class="st53" points="113.7,81.9 112.2,82.7 112.2,57.2 113.7,56.3 				"/>
				<polygon id="Cube_face_-_top_24_" class="st45" points="112.2,57.2 83.1,40.4 84.7,39.5 113.7,56.3 				"/>
			</g>
			<g id="Axonometric_Cube_7_">
				<polygon id="Cube_face_-_left_20_" class="st52" points="56.5,114.9 27.4,98.1 27.4,72.6 56.5,89.3 				"/>
				<polygon id="Cube_face_-_right_4_" class="st53" points="58,114 56.5,114.9 56.5,89.3 58,88.5 				"/>
				<polygon id="Cube_face_-_top_23_" class="st47" points="56.5,89.3 27.4,72.6 29,71.7 58,88.5 				"/>
			</g>
		</g>
		<g id="Axonometric_Cube_6_">
			<polygon id="Cube_face_-_left_19_" class="st52" points="56.5,88.3 21.5,68.1 21.5,70 56.5,90.2 			"/>
			<polygon id="Cube_face_-_right_3_" class="st53" points="116.1,55.8 56.5,90.2 56.5,88.3 116.1,53.9 			"/>
			<polygon id="Cube_face_-_top_22_" class="st54" points="56.5,88.3 21.5,68.1 81.1,33.7 116.1,53.9 			"/>
		</g>
		<g>
			<path class="st1" d="M94.7,50.1l-13.9-8.1c-3.4-2-7.6-2-11,0c-2.1,1.2-23.1,13.4-26.6,15.3c-1.8,1-2.6,2.8-2.7,4.5
				c0,0.4,0,2.1,0,2.5c0,1.8,0.9,3.6,2.7,4.7l13.9,8.1c3.4,2,7.6,2,11,0c6.9-4,18.7-10.8,26.6-15.4c1.8-1,2.6-2.8,2.7-4.6
				c0-0.4,0-2.1,0-2.5C97.4,53,96.5,51.2,94.7,50.1z"/>
			<path class="st5" d="M94.7,50.1l-13.9-8.1c-3.4-2-7.6-2-11,0c-2.1,1.2-4.6,2.7-7.3,4.2l-6.7-4l-0.2,8c-4.4,2.5-8.7,5-12.3,7.1
				c-3.5,2-3.6,7.2,0,9.2l13.9,8.1c3.4,2,7.6,2,11,0c6.9-4,18.7-10.8,26.6-15.4C98.2,57.3,98.2,52.2,94.7,50.1z"/>
			<g>
				<path class="st45" d="M71.4,61.8c0.4,0.3,1,0.4,1.7,0.4c0.7,0,1.3-0.2,1.8-0.6c0.6-0.4,0.8-0.8,0.8-1.2s-0.2-0.8-0.6-1.2
					l5.2-1.8c1.1,1.2,1.6,2.3,1.5,3.4c-0.1,1.1-0.9,2.1-2.2,3c-1.8,1.2-3.6,1.9-5.5,2.2c-1.9,0.2-3.6,0.1-5.1-0.4
					c-1.7-0.6-2.9-1.3-3.5-2.1c-0.6-0.9-0.9-1.9-0.8-3c0.1-0.7,0-1.2-0.1-1.7c-0.1-0.5-0.6-0.9-1.3-1.4l4.7-2.8l0.6,0.4
					c0.6,0.4,1.1,0.8,1.4,1.3c0.3,0.5,0.4,1,0.4,1.6c0,0.6-0.1,1.1-0.1,1.6c0,0.4,0,0.8,0.1,1.1c0.1,0.3,0.2,0.5,0.3,0.7
					C70.9,61.4,71.1,61.6,71.4,61.8z M66.4,53.7l-4.6,2.8l-4.4-2.6l4.6-2.8L66.4,53.7z"/>
			</g>
		</g>
	</g>
	<g>
		<path class="st55" d="M65.2,48.1c-0.4-1.7-1-3.6-1.3-4.2c-1.7-2.9-4.2-5.4-5.8-7.1c-1.9-2.1-1.6-2.3-7.4-7.7l3.6-3.3
			c1.8,2.5,4,4.5,6.9,7.3c2.3,2.3,1.6,4,3.6,6.5c1,1.3,2.1,2.7,3.5,3.4c1.5,0.8,3.7,1.1,3.8,3c0,0.6-0.3,1.1-0.3,1.7
			c-0.1,1-0.9,0.4-0.5,1.4c0.4,1-1.8-0.1-1.8-0.1c-0.5-0.7-1-1.2-1.6-1.2c-1.1,0-0.7,1.4-0.8,2.1C67.1,49.8,65.5,49,65.2,48.1z"/>
		<path class="st50" d="M58.7,29.1c0.8,1.4-5.2,4.9-5.9,3.8c-3.9-5.6-7.5-11.2-5.1-13.5C50.9,16.4,57.5,27.2,58.7,29.1z"/>
		<path class="st50" d="M36.3,23.9c-2.1,3.2,0.8,7.7-0.5,11.3c-0.8,2.2-2.7,3.7-3.9,5.8c-1.8,3.3,4.7,5.5,9.2,4.8
			c4.9-0.8,10-4.5,8.3-6.3c-1.5-1.8-2.4-3.1-1.5-5c0.5-1,1.8-1.4,2.7-2.2c2-1.5,2.2-4.8,0.4-6.6c-0.6-0.6-1.4-1.1-1.7-1.9
			c-0.7-2.2,1.9-4.6,0.6-6.9c-0.8-1.6-2.1-1-3.4-0.2C44.9,17.8,37.5,22,36.3,23.9z"/>
		<path class="st55" d="M52.1,50.4c-1.1-0.4-2.3-0.7-3.4-1c-1.8-0.6-6.4-6.4-9.4-7.9c-0.2-1.8-0.1-6.1-0.1-6.1l-5.4-1
			c-0.2,2.8,0.6,9.7,0.7,10.1c0.3,0.6,0.9,0.9,1.4,1.1c2.8,1.3,11,6,12.1,7.2c0.9,1,1.8,2,2.8,3.1c0.9,1,1.6,2.1,2.3,3.2
			c0.1,0.2,0.5,0.6,0.7,0.3c0.2-0.2,0-0.8-0.1-1.1c-0.2-0.9-1.1-2.4-0.8-2.4c0.2,0,1.5,1.6,1.6,1.8c0.4,0.5,0.8,1.3,1.4,1.5
			c0.7,0.3,0.6-0.5,0.3-0.9c0.7,0.9,1.7,0.1,0.7-1.2C58.4,58,56.8,52.3,52.1,50.4z"/>
		<path class="st50" d="M32.9,37.5c0,1.6,6.9,1.7,7,0.4c0.7-6.8,1-13.4-2.2-14.3C33.4,22.6,32.9,35.2,32.9,37.5z"/>
		<path class="st29" d="M36,11.1c0.3,3.7,2.5,7.6-0.3,10.5c3,1.2,8-2,9.1-4.4c0.5-1,2.5-5,2.4-5.5c-0.5-5.1-4.4-7.3-7.6-6.3
			C37.2,6.1,35.8,8.6,36,11.1z"/>
		<g>
			<path class="st56" d="M44.8,25.5c0.6,0.2,1.4,0.1,1.9-0.4c0.7-0.6,0.9-1.7,1.5-3.7c0.1-0.4-5.1-4-5.7-3.4c-0.4,0.4-0.5,1.2-0.9,2
				c-0.2,0.5-0.3,1.1-0.2,1.6C42,23.7,44,25.2,44.8,25.5z"/>
			<g>
				<g>
					<path class="st55" d="M51.3,14.6c-0.1-1.4-0.5-2.7-1.2-3.9C49,9,47.5,8.2,45.5,8.1c-0.6,0-1.5,0.5-2,0.7
						c-1.9,0.7-2.3,4-2.3,5.8c-0.1,2.3,0.1,4.8,1.6,6.6c2,2.3,4.5,4,5.9,3.6c0.9-0.3,1.2-1.6,1.4-2.7l0.5-0.4c0-2.1-0.5-2,0.3-3.3
						C51.5,17.4,51.4,15.8,51.3,14.6z"/>
					<path class="st28" d="M50.5,9.6c-9.4-7.5-14.7,6.2-8.9,10c-0.3-1,1-1.6,1.2-1.3c0.6,0.9,0.8,1.9,1.3,2.1
						c0.4,0.1,0.6-0.4,0.8-0.9c0.2-0.5,0.5-1,1-1.3c1.8-1.3,3.9-0.3,5.6-1.8C52.4,15.6,53,11.6,50.5,9.6z"/>
					<path class="st55" d="M42.4,17.7c-0.9-1-2.4,0.3,0.1,3.1c0.3,0.3,0.6,0.6,0.9,0.4C44.1,20.7,42.9,18.3,42.4,17.7z"/>
				</g>
			</g>
		</g>
	</g>
	<g>
		<g>
			<polygon class="st11" points="72.1,52.4 70.4,54.4 68,53.5 62.4,33 66.5,31.9 			"/>
			<path class="st57" d="M71.3,57.6L68,53.5c0,0,1,0.4,2-0.6c1.2-1.1,2-0.6,2-0.6L71.3,57.6z"/>
			
				<ellipse transform="matrix(0.9644 -0.2643 0.2643 0.9644 -6.2856 18.1839)" class="st57" cx="64.4" cy="32.4" rx="2.1" ry="0.3"/>
			<path class="st45" d="M70.3,56.4l1,1.2l0.3-1.8C70.9,55.8,70.5,56.1,70.3,56.4z"/>
		</g>
		<path class="st55" d="M65.6,49c0.6,1.5,2.4,2.2,3,1.8c0.7-0.3,0.2-1.3-1.2-1.6c-1.1-0.7-1.2-2.2-1.2-2.2S64.9,46.9,65.6,49z"/>
		<path class="st55" d="M72.4,48.5c0.1,0.8,0,1.6-1.2,2.7c-1.4,1.2-1.6-0.3-0.8-1.2c0.3-0.4,0.6-0.5,0.8-1.2
			c0.3-1.2,0.5-3.4,0.5-3.4S72.1,45.8,72.4,48.5z"/>
	</g>
</g>
<g>
	<g class="st0">
		<g class="st0">
			<g>
				<path class="st1" d="M106-16.5l3.1-1.8c0.1,0.4,0.1,0.6,0,0.7l-3.1,1.8C106.1-15.9,106.1-16.1,106-16.5L106-16.5z"/>
			</g>
		</g>
		<g class="st0">
			<g class="st0">
				<path class="st2" d="M88.2-47.6l3.1-1.8c-0.4,0.3-0.7,0.8-0.7,1.6c0,1.5,1.1,3.4,2.4,4.2l-3.1,1.8c-1.3-0.8-2.4-2.6-2.4-4.2
					C87.5-46.8,87.7-47.3,88.2-47.6L88.2-47.6z"/>
			</g>
		</g>
		<g class="st0">
			<g class="st0">
				<path class="st3" d="M88.2-47.6l3.1-1.8c0.4-0.3,1.1-0.2,1.7,0.2l-3.1,1.8C89.2-47.8,88.6-47.8,88.2-47.6L88.2-47.6z"/>
			</g>
		</g>
		<g class="st0">
			<g class="st0">
				<path class="st3" d="M89.9-47.4l3.1-1.8c1.3,0.8,2.4,2.7,2.4,4.2c0,0.8-0.3,1.3-0.7,1.6l-3.1,1.8c0.4-0.3,0.7-0.8,0.7-1.6
					C92.3-44.7,91.2-46.6,89.9-47.4L89.9-47.4z"/>
			</g>
		</g>
		<g>
			<polygon class="st1" points="104,-24.6 107.1,-26.4 109.1,-18.3 106,-16.5 			"/>
		</g>
		<g class="st0">
			<g class="st0">
				<path class="st2" d="M95.6-43.3l3.1-1.8c-0.4,0.3-0.7,0.8-0.7,1.6c0,1.5,1.1,3.4,2.4,4.2l-3.1,1.8c-1.3-0.8-2.4-2.6-2.4-4.2
					C94.9-42.5,95.2-43,95.6-43.3L95.6-43.3z"/>
			</g>
		</g>
		<g class="st0">
			<g class="st0">
				<path class="st3" d="M95.6-43.3l3.1-1.8c0.4-0.3,1.1-0.2,1.7,0.2l-3.1,1.8C96.7-43.5,96.1-43.5,95.6-43.3L95.6-43.3z"/>
			</g>
		</g>
		<g class="st0">
			<g class="st0">
				<path class="st3" d="M97.3-43.1l3.1-1.8c1.3,0.8,2.4,2.6,2.4,4.2c0,0.8-0.3,1.3-0.7,1.6L99-37.3c0.4-0.3,0.7-0.8,0.7-1.6
					C99.8-40.4,98.7-42.3,97.3-43.1L97.3-43.1z"/>
			</g>
		</g>
		<g>
			<path class="st4" d="M97.3-43.1c1.3,0.8,2.4,2.6,2.4,4.2c0,1.5-1.1,2.2-2.4,1.4s-2.4-2.6-2.4-4.2C94.9-43.2,96-43.9,97.3-43.1z"
				/>
		</g>
		<g class="st0">
			<g class="st0">
				<path class="st2" d="M103.1-39l3.1-1.8c-0.4,0.3-0.7,0.8-0.7,1.6c0,1.5,1.1,3.4,2.4,4.2l-3.1,1.8c-1.3-0.8-2.4-2.6-2.4-4.2
					C102.4-38.2,102.6-38.7,103.1-39L103.1-39z"/>
			</g>
		</g>
		<g class="st0">
			<g class="st0">
				<path class="st3" d="M103.1-39l3.1-1.8c0.4-0.3,1.1-0.2,1.7,0.2l-3.1,1.8C104.1-39.2,103.5-39.2,103.1-39L103.1-39z"/>
			</g>
		</g>
		<g class="st0">
			<g class="st0">
				<path class="st3" d="M104.8-38.8l3.1-1.8c1.3,0.8,2.4,2.6,2.4,4.2c0,0.8-0.3,1.3-0.7,1.6l-3.1,1.8c0.4-0.3,0.7-0.8,0.7-1.6
					C107.2-36.1,106.1-38,104.8-38.8L104.8-38.8z"/>
			</g>
		</g>
		<g>
			<path class="st4" d="M104.8-38.8c1.3,0.8,2.4,2.6,2.4,4.2c0,1.5-1.1,2.2-2.4,1.4s-2.4-2.6-2.4-4.2
				C102.4-38.9,103.5-39.6,104.8-38.8z"/>
		</g>
		<g>
			<path class="st5" d="M108.6-47c2.1,1.2,3.8,4.2,3.8,6.6v16.2c0,2.4-1.7,3.4-3.8,2.2l-4.5-2.6l2,8.1c0.1,0.6,0,0.8-0.2,0.6
				c-0.1-0.1-0.3-0.2-0.4-0.4L94.7-29.8c-0.1-0.1-0.2-0.3-0.3-0.4L86-35c-2.1-1.2-3.8-4.2-3.8-6.6v-16.2c0-2.4,1.7-3.4,3.8-2.2
				L108.6-47z M89.9-41.8c1.3,0.8,2.4,0.2,2.4-1.4c0-1.5-1.1-3.4-2.4-4.2c-1.3-0.8-2.4-0.2-2.4,1.4C87.5-44.5,88.5-42.6,89.9-41.8
				L89.9-41.8z M97.3-37.5c1.3,0.8,2.4,0.2,2.4-1.4c0-1.5-1.1-3.4-2.4-4.2s-2.4-0.2-2.4,1.4C94.9-40.2,96-38.3,97.3-37.5L97.3-37.5z
				 M104.8-33.2c1.3,0.8,2.4,0.2,2.4-1.4c0-1.5-1.1-3.4-2.4-4.2s-2.4-0.2-2.4,1.4C102.4-35.9,103.4-34,104.8-33.2L104.8-33.2z"/>
		</g>
		<g>
			<path class="st4" d="M89.9-47.4c1.3,0.8,2.4,2.7,2.4,4.2c0,1.5-1.1,2.2-2.4,1.4c-1.3-0.8-2.4-2.6-2.4-4.2S88.6-48.2,89.9-47.4z"
				/>
		</g>
		<g class="st0">
			<g>
				<path class="st1" d="M83.4-60.2l3.1-1.8c0.7-0.4,1.7-0.3,2.7,0.3l-3.1,1.8C85.1-60.6,84.1-60.6,83.4-60.2L83.4-60.2z"/>
			</g>
		</g>
		<g class="st0">
			<g>
				<path class="st1" d="M112.4-24.2l3.1-1.8c0,1.2-0.4,2-1.1,2.4l-3.1,1.8C111.9-22.2,112.4-23,112.4-24.2L112.4-24.2z"/>
			</g>
		</g>
		<g>
			<polygon class="st1" points="112.4,-40.4 115.5,-42.2 115.5,-26 112.4,-24.2 			"/>
		</g>
		<g>
			<polygon class="st6" points="86.1,-60 89.2,-61.8 111.7,-48.8 108.6,-47 			"/>
		</g>
		<g class="st0">
			<g>
				<path class="st1" d="M108.6-47l3.1-1.8c2.1,1.2,3.8,4.2,3.8,6.6l-3.1,1.8C112.4-42.8,110.7-45.8,108.6-47L108.6-47z"/>
			</g>
		</g>
	</g>
</g>
</svg>
